<?xml version="1.0" encoding="utf-8"?>
<!-- Generator: Adobe Illustrator 24.3.0, SVG Export Plug-In . SVG Version: 6.00 Build 0)  -->
<svg version="1.1" id="Layer_1" xmlns="http://www.w3.org/2000/svg" xmlns:xlink="http://www.w3.org/1999/xlink" x="0px" y="0px"
	 viewBox="0 0 209.4 54.2" style="enable-background:new 0 0 209.4 54.2;" xml:space="preserve">
<style type="text/css">
	.st0{fill:#97CCEF;}
	.st1{fill:#1C75BC;}
	.st2{enable-background:new    ;}
	.st3{fill:#2774BB;}
</style>
<g>
	<path class="st0" d="M178,21.1c0-0.7-0.3-1.4-0.9-1.9c-1.1-1-2.7-1-3.7,0.1c-0.5,0.5-0.8,1.1-0.8,1.8c0,1.5,1.1,2.7,2.6,2.8
		c0.7,0,1.5-0.3,2-0.8C177.8,22.5,178.1,21.8,178,21.1L178,21.1z M178.3,21.1c0,0.8-0.4,1.6-0.9,2.1c-0.6,0.6-1.3,0.9-2.1,0.9
		c-1.7,0-3.2-1.3-3.2-3c0,0,0,0,0,0c0-1.7,1.4-3.1,3.1-3.1C176.9,17.9,178.3,19.3,178.3,21.1C178.3,21,178.3,21,178.3,21.1z"/>
</g>
<g>
	<path class="st0" d="M183,34.6c0-0.6-0.3-1.2-0.7-1.6c-0.9-0.9-2.4-0.8-3.3,0.1c-0.9,0.9-0.8,2.4,0.1,3.3c0.9,0.9,2.4,0.8,3.3-0.1
		C182.8,35.7,183,35.2,183,34.6z M183.3,34.6c-0.1,1.5-1.2,2.6-2.7,2.7c-0.7,0-1.4-0.2-1.9-0.7c-0.5-0.5-0.8-1.2-0.9-1.9
		c0-1.5,1.2-2.8,2.7-2.8c0.8,0,1.5,0.3,2.1,0.9C183.1,33.1,183.3,33.8,183.3,34.6L183.3,34.6z"/>
</g>
<g>
	<path class="st0" d="M190,27.9c0-1-0.8-1.7-1.8-1.7s-1.7,0.8-1.7,1.8c0,0.9,0.8,1.7,1.7,1.7c0.5,0,1-0.2,1.3-0.5
		C189.8,28.9,190,28.4,190,27.9z M190.3,27.9c-0.1,1.2-1,2.1-2.1,2.1c-0.6,0-1.1-0.2-1.6-0.6c-0.4-0.4-0.7-1-0.7-1.5
		c0-0.6,0.2-1.2,0.6-1.6c0.8-0.9,2.2-0.9,3.1,0C190.1,26.7,190.3,27.3,190.3,27.9L190.3,27.9z"/>
</g>
<g>
	<path class="st0" d="M195,16.2c0-0.6-0.3-1.2-0.7-1.6c-0.9-0.9-2.4-0.8-3.3,0.1c-0.4,0.4-0.6,0.9-0.6,1.5c0,1.3,1,2.3,2.3,2.4
		c0.6,0,1.2-0.2,1.7-0.7C194.8,17.5,195,16.9,195,16.2L195,16.2z M195.3,16.2c-0.1,1.5-1.2,2.6-2.7,2.7c-1.5,0-2.8-1.2-2.8-2.7
		c0-0.8,0.3-1.5,0.8-2c1.1-1.1,2.8-1.1,3.9,0c0,0,0.1,0.1,0.1,0.1C195.1,14.8,195.3,15.5,195.3,16.2L195.3,16.2z"/>
</g>
<g>
	<path class="st0" d="M179.3,24.4c-0.1-0.5-0.6-0.9-1.1-0.9c0,0,0,0-0.1,0c-0.6,0.1-1,0.6-0.9,1.1c0.1,0.6,0.6,1,1.1,0.9l0,0
		c0.3,0,0.6-0.1,0.8-0.4C179.2,25,179.3,24.7,179.3,24.4L179.3,24.4z M179.6,24.4c0,0.8-0.5,1.4-1.3,1.6c-0.8,0.1-1.6-0.5-1.7-1.3
		c-0.1-0.4,0.1-0.8,0.3-1.1c0.3-0.3,0.6-0.5,1.1-0.6C178.8,23,179.5,23.6,179.6,24.4L179.6,24.4z"/>
</g>
<g>
	<path class="st0" d="M174.2,17.2c-0.1-0.6-0.6-1-1.1-0.9c-0.6,0.1-1,0.6-0.9,1.1l0,0c0,0.6,0.4,1,1,1c0,0,0.1,0,0.1,0
		c0.3,0,0.6-0.2,0.8-0.4C174.2,17.8,174.3,17.5,174.2,17.2L174.2,17.2z M174.5,17.2c0,0.8-0.6,1.5-1.4,1.6c-0.8,0-1.5-0.6-1.6-1.4
		c0-0.4,0.1-0.7,0.3-1c0.3-0.3,0.6-0.5,1.1-0.5C173.8,15.7,174.5,16.4,174.5,17.2C174.5,17.2,174.5,17.2,174.5,17.2z"/>
</g>
<g>
	<path class="st0" d="M188.1,24.1c-0.1-0.5-0.6-0.9-1.1-0.9c0,0,0,0-0.1,0c-0.6,0.1-1,0.6-0.9,1.1c0.1,0.6,0.6,1,1.1,0.9
		c0.3,0,0.6-0.1,0.8-0.4C188,24.7,188.1,24.4,188.1,24.1L188.1,24.1z M188.4,24.1c0,0.8-0.5,1.4-1.3,1.5c-0.4,0.1-0.8,0-1.1-0.3
		c-0.3-0.2-0.5-0.6-0.6-1c-0.1-0.4,0.1-0.8,0.3-1.1c0.5-0.6,1.4-0.8,2.1-0.3C188.1,23.2,188.4,23.6,188.4,24.1L188.4,24.1z"/>
</g>
<g>
	<path class="st0" d="M178.6,31.6c-0.1-0.6-0.6-1-1.1-0.9c-0.6,0.1-1,0.6-0.9,1.1c0,0.6,0.4,1,1,1c0,0,0.1,0,0.1,0
		c0.3,0,0.6-0.1,0.8-0.4C178.6,32.2,178.6,31.9,178.6,31.6L178.6,31.6z M178.9,31.6c0,0.8-0.5,1.4-1.3,1.6c-0.4,0.1-0.8,0-1.1-0.3
		c-0.7-0.5-0.8-1.4-0.3-2.1c0,0,0-0.1,0.1-0.1c0.3-0.3,0.6-0.5,1.1-0.6C178.1,30.1,178.8,30.8,178.9,31.6L178.9,31.6z"/>
</g>
<g>
	<path class="st0" d="M195.7,20.2c-0.1-0.5-0.6-0.9-1.2-0.8c-0.5,0.1-0.9,0.6-0.8,1.2c0.1,0.5,0.5,0.8,1,0.8c0.3,0,0.6-0.2,0.8-0.4
		C195.7,20.8,195.7,20.5,195.7,20.2L195.7,20.2z M196,20.2c0,0.8-0.5,1.4-1.3,1.6c-0.8,0.1-1.6-0.5-1.7-1.3
		c-0.1-0.4,0.1-0.8,0.3-1.1c0.3-0.3,0.6-0.5,1.1-0.5C195.3,18.8,196,19.4,196,20.2z"/>
</g>
<g>
	<path class="st0" d="M166.2,15.1c0.7-0.6,1.6-1,2.5-1.1c0.9-0.2,1.7-0.2,2.6-0.1c0.9,0.1,1.7,0.3,2.5,0.5c0.4,0.1,0.8,0.3,1.2,0.5
		l1.1,0.5c1.4,0.6,2.9,1,4.4,1.2c1.5,0.3,3,0.1,4.4-0.5c0.3-0.2,0.7-0.4,0.9-0.6c0.3-0.3,0.5-0.5,0.8-0.8c0.3-0.3,0.5-0.6,0.8-0.9
		s0.6-0.6,0.9-0.9c1.3-1.1,2.8-1.9,4.5-2.3c3.5-0.8,7.2,0.6,9.2,3.6l-1,0.7c-0.9-1.2-2.1-2.1-3.5-2.6c-1.4-0.5-2.9-0.7-4.4-0.4
		c-1.5,0.3-2.9,0.8-4.2,1.7c-0.6,0.5-1.2,1-1.7,1.6c-0.3,0.3-0.6,0.6-0.9,0.9c-0.7,0.6-1.4,1-2.2,1.3c-0.2,0.1-0.4,0.1-0.6,0.2
		c-0.2,0.1-0.4,0.1-0.6,0.1c-0.8,0.2-1.7,0.2-2.6,0.1c-1.7-0.2-3.3-0.6-4.9-1.3c-0.4-0.1-0.8-0.4-1.1-0.5c-0.3-0.2-0.7-0.3-1-0.4
		c-0.7-0.2-1.5-0.4-2.2-0.5c-1.4-0.2-2.9,0-4.2,0.8L166.2,15.1L166.2,15.1z"/>
</g>
<g>
	<path class="st1" d="M48.7,26.7l-3.4-7.2l-3.4,7.2H48.7z M32.1,38.4V38c1.2-0.6,2.2-1.5,3-2.6c1.4-1.9,2.6-4,3.6-6.1l9-17.7h0.3
		L57.5,29c1.3,2.5,2.7,4.9,4.2,7.2c0.5,0.9,1.3,1.5,2.3,1.8v0.5c-0.7,0-1.5-0.1-2.3-0.1s-1.9,0-3.2,0c-1.7,0-3.1,0-4.2,0
		s-2.2,0-3.3,0.1V38c0.5,0,1-0.2,1.4-0.5c0.3-0.3,0.4-0.7,0.4-1.1c-0.1-0.7-0.2-1.4-0.5-2.1c-0.4-1.2-0.9-2.3-1.5-3.4l-1.4-2.8h-8.2
		l-0.6,1.4c-0.6,1.1-1.1,2.3-1.5,3.5c-0.3,0.7-0.4,1.5-0.5,2.3c0,0.7,0.3,1.4,0.8,1.9c0.6,0.5,1.3,0.8,2.1,0.9v0.5
		c-0.7,0-1.4-0.1-2.1-0.1c-0.7,0-1.6,0-2.7,0s-2,0-2.7,0S32.7,38.4,32.1,38.4L32.1,38.4z"/>
</g>
<g>
	<path class="st1" d="M73.8,24.5c0.8,0.2,1.6,0.2,2.4,0.2c1.9,0.1,3.8-0.4,5.3-1.5c1.3-1,1.9-2.6,1.8-4.2c0.1-1.6-0.6-3.1-1.9-4.1
		c-1.3-0.9-3.2-1.3-5.9-1.3c-0.3,0-0.7,0-1.4,0.1h-0.3V24.5z M64.7,12.2c1.1,0,2.2,0,3.3,0h7.4c2.8,0,5,0.1,6.5,0.2
		c1.3,0.1,2.6,0.4,3.9,0.7c1.5,0.4,2.8,1.2,3.8,2.3c0.9,1,1.4,2.3,1.4,3.6c0,2.2-1.2,3.9-3.7,5.2c-2.5,1.3-5.9,1.9-10.2,1.9l-1.4,0
		l-1.9-0.1v3.2c0,3.4,0.2,5.7,0.6,6.7c0.4,1,1.3,1.8,2.3,2v0.5c-0.9,0-1.7-0.1-2.7-0.1c-0.9,0-2.2,0-3.8,0c-1.5,0-2.7,0-3.6,0
		s-1.7,0-2.5,0.1V38c1-0.2,1.9-0.9,2.3-1.8c0.4-1,0.6-3.3,0.6-6.9V15.9c0-0.7-0.1-1.5-0.5-2.1c-0.5-0.5-1.1-0.9-1.8-1L64.7,12.2
		L64.7,12.2z"/>
</g>
<g>
	<g>
		<g>
			<path class="st1" d="M91.7,36.5l2.2-7.5h0.5c0.3,2.4,1.4,4.7,3.2,6.5c1.7,1.5,3.9,2.3,6.2,2.2c1.7,0.1,3.5-0.4,4.9-1.4
				c1.2-1,1.8-2.4,1.8-3.9c0.1-1.1-0.4-2.1-1.3-2.7c-0.8-0.6-2.8-1.2-5.8-1.9c-1.8-0.3-3.6-0.7-5.3-1.3c-0.9-0.3-1.8-0.8-2.6-1.5
				c-0.7-0.6-1.3-1.4-1.7-2.3c-0.4-0.9-0.6-1.9-0.6-2.8c0-2.5,1.2-4.7,3.3-6.1c2.6-1.7,5.7-2.5,8.8-2.3c1.8,0,3.6,0.2,5.4,0.5
				c1.7,0.3,3.4,0.9,4.9,1.6l-1.9,6.4h-0.5c-0.4-2-1.3-3.9-2.8-5.3c-1.4-1.2-3.2-1.9-5-1.8c-1.5-0.1-3.1,0.4-4.3,1.3
				c-1.1,0.7-1.7,2-1.7,3.2c0,0.5,0.1,1,0.3,1.5c0.2,0.5,0.6,0.9,1,1.2c0.7,0.6,2.4,1.1,5.2,1.6c1.1,0.2,2,0.4,2.6,0.5
				c2.3,0.3,4.4,1.2,6.2,2.7c1.4,1.3,2.1,3.1,2,4.9c0,2.7-1.3,5.2-3.5,6.7c-2.7,1.8-5.9,2.8-9.2,2.6c-2.2,0-4.5-0.2-6.6-0.7
				C95.3,38,93.4,37.3,91.7,36.5L91.7,36.5z"/>
		</g>
		<g>
			<path class="st0" d="M160,34.3c-2.4,1.7-5.1,3-8,3.9c-3,0.9-6.2,1.3-9.4,1.3c-2.8,0-5.7-0.4-8.4-1.3c-2.5-0.8-4.9-2.1-6.9-3.8
				c-2.2-1.7-3.9-3.9-5.1-6.5c-1.2-2.7-1.7-5.5-1.7-8.4c-0.2-5.4,2.1-10.6,6.2-14.1C131,1.8,136.5,0,143.3,0c2.7,0,5.5,0.4,8.1,1.1
				c2.6,0.7,5.1,1.8,7.4,3.2l-2.8,9l-0.8-0.1c-0.6-3.7-1.8-6.4-3.7-8.3c-2-1.9-4.8-3-7.6-2.8c-3.6-0.1-7,1.6-9,4.6
				c-2.2,3-3.3,7.2-3.3,12.6c0,5.8,1.1,10.2,3.3,13.4c2,3.1,5.5,4.9,9.3,4.8c2.9,0.1,5.8-1,7.8-3.1c1.9-2.1,3.2-5.4,4-9.8l0.8,0
				L160,34.3z"/>
		</g>
		<g>
			<path class="st0" d="M185.2,37.5c3.3,0.2,6.5-1.5,8.1-4.4c1.8-2.9,2.7-7.4,2.7-13.5s-0.9-10.5-2.7-13.4c-1.7-2.9-4.8-4.5-8.1-4.4
				c-3.7,0-6.4,1.4-8.1,4.3c-1.7,2.9-2.6,7.4-2.6,13.5c0,6.1,0.9,10.6,2.6,13.5C178.7,36,181.9,37.7,185.2,37.5z M163.5,19.6
				c0-2.8,0.6-5.5,1.7-8c1.2-2.5,2.9-4.7,5-6.5c2-1.7,4.3-3,6.8-3.8c5.4-1.7,11.1-1.7,16.5,0c5.1,1.8,9.3,5.5,11.7,10.4
				c1.1,2.5,1.7,5.2,1.7,7.9c0,2.7-0.6,5.4-1.7,7.9c-1.2,2.6-3,4.9-5.2,6.7c-1.9,1.7-4.2,3-6.6,3.9c-2.6,0.9-5.4,1.4-8.1,1.3
				c-2.8,0-5.6-0.5-8.3-1.4c-2.5-0.9-4.9-2.2-6.9-4c-2.1-1.8-3.7-4.1-4.8-6.6C164.1,25,163.5,22.3,163.5,19.6L163.5,19.6z"/>
		</g>
	</g>
</g>
<g>
	<path class="st1" d="M186.9,52.5c0.4-1.9,1.2-3.7,2.4-5.2c1.2-1.5,2.7-2.9,4.3-3.8c0.5-0.3,1.1-0.7,2-1.1c1.3-0.7,2.5-1.5,3.7-2.5
		c0.7-0.7,1.2-1.5,1.5-2.3c0.3-1,0.5-2,0.5-3c0.1-1.7-0.3-3.4-1.2-4.9c-0.8-1.1-2.2-1.8-3.6-1.7c-1.6,0-3.2,0.7-4.2,1.9
		c-1.3,1.8-2.1,3.8-2.3,6l-0.5,0.1l-1.9-7.1c1.5-0.7,3.1-1.3,4.8-1.7c1.6-0.4,3.2-0.6,4.8-0.6c2.9-0.1,5.9,0.7,8.3,2.3
		c2,1.3,3.2,3.5,3.2,5.8c0,1.2-0.3,2.4-1,3.5c-0.8,1.1-1.9,2.1-3.2,2.8c-1.3,0.7-2.7,1.2-4.1,1.6c-1.9,0.6-3.4,1.1-4.3,1.4
		c-1,0.3-2,0.8-2.8,1.5c-0.6,0.5-1,1.1-1.1,1.9h9.5c1.5,0,2.9-0.2,4.3-0.8c1.2-0.6,2.3-1.5,3.2-2.5l0.4,0.1l-2.5,8.7
		c-0.8,0-1.6-0.1-2.7-0.1s-2.3,0-3.6,0L186.9,52.5z"/>
</g>
<g>
	<path class="st1" d="M0,11.5L2.6,1.1h36l2.5,10.4l-0.6,0.2c-1.8-2.5-3.9-4.6-6.3-6.4c-1.7-1.3-3.8-2.1-5.9-2.3
		c-0.9-0.1-1.8,0.3-2.3,1c-0.4,0.7-0.6,2.5-0.6,5.4v16c0,5,0.3,8.3,0.9,9.7c0.6,1.4,1.9,2.5,3.4,2.7v0.7c-1.3-0.1-2.6-0.1-3.9-0.1
		s-3.2,0-5.4,0s-3.8,0-5.1,0s-2.5,0.1-3.7,0.1v-0.7c1.5-0.2,2.7-1.2,3.3-2.6c0.6-1.4,0.9-4.6,0.9-9.8v-16c0-3-0.2-4.8-0.6-5.4
		c-0.5-0.7-1.4-1.1-2.3-1C10.8,3.1,8.7,3.9,7,5.3c-2.4,1.8-4.6,4-6.3,6.4L0,11.5z"/>
</g>
<g class="st2">
	<g>
		<g>
			<path class="st3" d="M21.8,44.1h2.9c0.7,0,1.1,0,1.5,0.1c0.5,0.1,0.9,0.4,1.2,0.7c0.3,0.3,0.6,0.8,0.7,1.3
				c0.2,0.5,0.3,1.1,0.3,1.9c0,0.6-0.1,1.2-0.2,1.7c-0.2,0.6-0.5,1-0.8,1.4c-0.3,0.3-0.6,0.5-1.1,0.6c-0.3,0.1-0.8,0.2-1.4,0.2h-3
				V44.1z M23.4,45.4v5.2h1.2c0.4,0,0.8,0,1-0.1c0.3-0.1,0.5-0.2,0.6-0.3c0.2-0.2,0.3-0.4,0.4-0.8c0.1-0.4,0.2-0.8,0.2-1.4
				c0-0.6-0.1-1.1-0.2-1.4c-0.1-0.3-0.3-0.6-0.4-0.8s-0.4-0.3-0.7-0.4c-0.2,0-0.7-0.1-1.3-0.1H23.4z"/>
		</g>
		<g>
			<path class="st3" d="M30.3,45.5v-1.4h1.5v1.4H30.3z M30.3,51.9v-5.7h1.5v5.7H30.3z"/>
		</g>
		<g>
			<path class="st3" d="M35.4,51.9l-2.3-5.7h1.6l1.1,2.9l0.3,1c0.1-0.2,0.1-0.4,0.2-0.5c0-0.2,0.1-0.3,0.2-0.5l1.1-2.9h1.5l-2.3,5.7
				H35.4z"/>
		</g>
		<g>
			<path class="st3" d="M40.5,45.5v-1.4H42v1.4H40.5z M40.5,51.9v-5.7H42v5.7H40.5z"/>
		</g>
		<g>
			<path class="st3" d="M43.6,50.3l1.5-0.2c0.1,0.3,0.2,0.5,0.4,0.7c0.2,0.2,0.5,0.2,0.8,0.2c0.4,0,0.7-0.1,0.9-0.2
				c0.1-0.1,0.2-0.2,0.2-0.4c0-0.1,0-0.2-0.1-0.3c-0.1-0.1-0.2-0.1-0.5-0.2c-1.2-0.3-2-0.5-2.3-0.7c-0.4-0.3-0.7-0.7-0.7-1.3
				c0-0.5,0.2-0.9,0.6-1.2s1-0.5,1.8-0.5c0.8,0,1.4,0.1,1.7,0.4s0.6,0.6,0.8,1.1l-1.4,0.3c-0.1-0.2-0.2-0.4-0.3-0.5
				c-0.2-0.1-0.4-0.2-0.7-0.2c-0.4,0-0.7,0.1-0.9,0.2c-0.1,0.1-0.2,0.2-0.2,0.3c0,0.1,0,0.2,0.1,0.3c0.1,0.1,0.6,0.2,1.4,0.4
				c0.8,0.2,1.4,0.4,1.7,0.7c0.3,0.3,0.5,0.6,0.5,1.1c0,0.5-0.2,1-0.7,1.3c-0.4,0.4-1.1,0.6-1.9,0.6c-0.8,0-1.4-0.2-1.8-0.5
				C44,51.3,43.7,50.8,43.6,50.3z"/>
		</g>
		<g>
			<path class="st3" d="M50.7,45.5v-1.4h1.5v1.4H50.7z M50.7,51.9v-5.7h1.5v5.7H50.7z"/>
		</g>
		<g>
			<path class="st3" d="M54,49c0-0.5,0.1-1,0.4-1.4c0.2-0.5,0.6-0.8,1-1.1c0.5-0.2,1-0.4,1.5-0.4c0.9,0,1.6,0.3,2.1,0.8
				s0.8,1.3,0.8,2.1c0,0.9-0.3,1.6-0.8,2.1c-0.6,0.6-1.3,0.8-2.1,0.8c-0.5,0-1-0.1-1.5-0.4s-0.8-0.6-1.1-1C54.1,50.2,54,49.7,54,49z
				 M55.5,49.1c0,0.6,0.1,1,0.4,1.3c0.3,0.3,0.6,0.4,1,0.4s0.7-0.2,1-0.4c0.3-0.3,0.4-0.7,0.4-1.3c0-0.6-0.1-1-0.4-1.3
				c-0.3-0.3-0.6-0.4-1-0.4s-0.7,0.1-1,0.4C55.7,48.1,55.5,48.5,55.5,49.1z"/>
		</g>
		<g>
			<path class="st3" d="M66.7,51.9h-1.5V49c0-0.6,0-1-0.1-1.2c-0.1-0.2-0.2-0.3-0.3-0.4c-0.1-0.1-0.3-0.2-0.5-0.2
				c-0.3,0-0.5,0.1-0.7,0.2c-0.2,0.1-0.3,0.3-0.4,0.6s-0.1,0.7-0.1,1.3v2.6h-1.5v-5.7H63v0.8c0.5-0.6,1.1-1,1.9-1
				c0.3,0,0.6,0.1,0.9,0.2c0.3,0.1,0.5,0.3,0.6,0.5c0.1,0.2,0.2,0.4,0.3,0.6c0.1,0.2,0.1,0.6,0.1,1V51.9z"/>
		</g>
		<g>
			<path class="st3" d="M72,49c0-0.5,0.1-1,0.4-1.4c0.2-0.5,0.6-0.8,1-1.1c0.5-0.2,1-0.4,1.5-0.4c0.9,0,1.6,0.3,2.1,0.8
				s0.8,1.3,0.8,2.1c0,0.9-0.3,1.6-0.8,2.1c-0.6,0.6-1.3,0.8-2.1,0.8c-0.5,0-1-0.1-1.5-0.4s-0.8-0.6-1.1-1C72.2,50.2,72,49.7,72,49z
				 M73.6,49.1c0,0.6,0.1,1,0.4,1.3c0.3,0.3,0.6,0.4,1,0.4s0.7-0.2,1-0.4c0.3-0.3,0.4-0.7,0.4-1.3c0-0.6-0.1-1-0.4-1.3
				c-0.3-0.3-0.6-0.4-1-0.4s-0.7,0.1-1,0.4C73.7,48.1,73.6,48.5,73.6,49.1z"/>
		</g>
		<g>
			<path class="st3" d="M79,46.3h0.8v-0.4c0-0.5,0.1-0.8,0.2-1.1c0.1-0.2,0.3-0.4,0.6-0.6c0.3-0.1,0.6-0.2,1-0.2
				c0.4,0,0.8,0.1,1.3,0.2l-0.2,1c-0.2-0.1-0.5-0.1-0.7-0.1c-0.2,0-0.4,0.1-0.5,0.2s-0.1,0.3-0.1,0.6v0.4h1.1v1.2h-1.1v4.5h-1.5
				v-4.5H79V46.3z"/>
		</g>
		<g>
			<path class="st3" d="M87.4,51.9v-7.8h5.4v1.3H89v1.9h3.3v1.3H89v3.3H87.4z"/>
		</g>
		<g>
			<path class="st3" d="M96.1,51.9h-1.5v-5.7H96v0.8c0.2-0.4,0.5-0.6,0.6-0.8c0.2-0.1,0.4-0.2,0.6-0.2c0.3,0,0.7,0.1,1,0.3l-0.5,1.3
				c-0.3-0.2-0.5-0.2-0.7-0.2c-0.2,0-0.4,0.1-0.5,0.2c-0.1,0.1-0.3,0.3-0.3,0.6c-0.1,0.3-0.1,0.9-0.1,1.9V51.9z"/>
		</g>
		<g>
			<path class="st3" d="M102.8,50.1l1.5,0.3c-0.2,0.5-0.5,1-0.9,1.3c-0.4,0.3-0.9,0.4-1.6,0.4c-1,0-1.7-0.3-2.2-1
				c-0.4-0.5-0.6-1.2-0.6-2c0-0.9,0.2-1.7,0.7-2.2c0.5-0.5,1.1-0.8,1.9-0.8c0.8,0,1.5,0.3,2,0.8c0.5,0.6,0.7,1.4,0.7,2.6h-3.8
				c0,0.4,0.1,0.8,0.4,1c0.2,0.2,0.5,0.4,0.9,0.4c0.2,0,0.4-0.1,0.6-0.2C102.5,50.6,102.7,50.4,102.8,50.1z M102.8,48.6
				c0-0.4-0.1-0.8-0.3-1s-0.5-0.3-0.8-0.3c-0.3,0-0.6,0.1-0.8,0.4c-0.2,0.2-0.3,0.6-0.3,1H102.8z"/>
		</g>
		<g>
			<path class="st3" d="M105.6,50.3l1.5-0.2c0.1,0.3,0.2,0.5,0.4,0.7c0.2,0.2,0.5,0.2,0.8,0.2c0.4,0,0.7-0.1,0.9-0.2
				c0.1-0.1,0.2-0.2,0.2-0.4c0-0.1,0-0.2-0.1-0.3c-0.1-0.1-0.2-0.1-0.5-0.2c-1.2-0.3-2-0.5-2.3-0.7c-0.4-0.3-0.7-0.7-0.7-1.3
				c0-0.5,0.2-0.9,0.6-1.2s1-0.5,1.8-0.5c0.8,0,1.4,0.1,1.7,0.4s0.6,0.6,0.8,1.1l-1.4,0.3c-0.1-0.2-0.2-0.4-0.3-0.5
				c-0.2-0.1-0.4-0.2-0.7-0.2c-0.4,0-0.7,0.1-0.9,0.2c-0.1,0.1-0.2,0.2-0.2,0.3c0,0.1,0,0.2,0.1,0.3c0.1,0.1,0.6,0.2,1.4,0.4
				c0.8,0.2,1.4,0.4,1.7,0.7c0.3,0.3,0.5,0.6,0.5,1.1c0,0.5-0.2,1-0.7,1.3c-0.4,0.4-1.1,0.6-1.9,0.6c-0.8,0-1.4-0.2-1.8-0.5
				C106,51.3,105.7,50.8,105.6,50.3z"/>
		</g>
		<g>
			<path class="st3" d="M117.9,51.9h-1.5V49c0-0.6,0-1-0.1-1.2c-0.1-0.2-0.2-0.3-0.3-0.4c-0.1-0.1-0.3-0.2-0.5-0.2
				c-0.3,0-0.5,0.1-0.7,0.2s-0.3,0.3-0.4,0.6c-0.1,0.2-0.1,0.7-0.1,1.3v2.6h-1.5v-5.7h1.4v0.8c0.5-0.6,1.1-1,1.9-1
				c0.3,0,0.6,0.1,0.9,0.2c0.3,0.1,0.5,0.3,0.6,0.5c0.1,0.2,0.2,0.4,0.3,0.6c0.1,0.2,0.1,0.6,0.1,1V51.9z"/>
		</g>
		<g>
			<path class="st3" d="M119.6,49c0-0.5,0.1-1,0.4-1.4c0.2-0.5,0.6-0.8,1-1.1s1-0.4,1.5-0.4c0.9,0,1.6,0.3,2.1,0.8s0.8,1.3,0.8,2.1
				c0,0.9-0.3,1.6-0.8,2.1c-0.6,0.6-1.3,0.8-2.1,0.8c-0.5,0-1-0.1-1.5-0.4c-0.5-0.2-0.8-0.6-1.1-1C119.7,50.2,119.6,49.7,119.6,49z
				 M121.2,49.1c0,0.6,0.1,1,0.4,1.3c0.3,0.3,0.6,0.4,1,0.4c0.4,0,0.7-0.2,1-0.4c0.3-0.3,0.4-0.7,0.4-1.3c0-0.6-0.1-1-0.4-1.3
				c-0.3-0.3-0.6-0.4-1-0.4c-0.4,0-0.7,0.1-1,0.4C121.3,48.1,121.2,48.5,121.2,49.1z"/>
		</g>
		<g>
			<path class="st3" d="M130.5,48.1c0-0.8,0.1-1.5,0.4-2c0.2-0.4,0.4-0.8,0.7-1.1c0.3-0.3,0.6-0.6,1-0.7c0.5-0.2,1.1-0.3,1.7-0.3
				c1.2,0,2.1,0.4,2.8,1.1c0.7,0.7,1,1.7,1,3c0,1.3-0.3,2.3-1,3c-0.7,0.7-1.6,1.1-2.8,1.1c-1.2,0-2.1-0.4-2.8-1.1
				C130.8,50.3,130.5,49.3,130.5,48.1z M132.1,48c0,0.9,0.2,1.6,0.6,2s0.9,0.7,1.6,0.7s1.1-0.2,1.6-0.7c0.4-0.5,0.6-1.1,0.6-2
				c0-0.9-0.2-1.6-0.6-2c-0.4-0.4-0.9-0.7-1.6-0.7s-1.2,0.2-1.6,0.7C132.3,46.4,132.1,47.1,132.1,48z"/>
		</g>
		<g>
			<path class="st3" d="M139.1,51.9l2-2.9l-2-2.8h1.8l1,1.6l1.1-1.6h1.8l-1.9,2.7l2.1,3h-1.8l-1.2-1.8l-1.2,1.8H139.1z"/>
		</g>
		<g>
			<path class="st3" d="M145.8,46.3h1.6l1.4,4l1.3-4h1.6l-2,5.5l-0.4,1c-0.1,0.3-0.3,0.6-0.4,0.8c-0.1,0.2-0.3,0.3-0.4,0.4
				c-0.2,0.1-0.3,0.2-0.6,0.3s-0.5,0.1-0.8,0.1c-0.3,0-0.6,0-0.9-0.1l-0.1-1.2c0.2,0,0.4,0.1,0.6,0.1c0.3,0,0.6-0.1,0.8-0.3
				c0.2-0.2,0.3-0.5,0.4-0.8L145.8,46.3z"/>
		</g>
		<g>
			<path class="st3" d="M153,52.3l1.7,0.2c0,0.2,0.1,0.3,0.2,0.4c0.1,0.1,0.4,0.2,0.7,0.2c0.4,0,0.7-0.1,0.9-0.2
				c0.1-0.1,0.2-0.2,0.3-0.4c0-0.1,0.1-0.4,0.1-0.7V51c-0.4,0.6-1,0.9-1.7,0.9c-0.8,0-1.4-0.3-1.8-1c-0.3-0.5-0.5-1.1-0.5-1.9
				c0-1,0.2-1.7,0.7-2.2s1-0.8,1.7-0.8c0.7,0,1.3,0.3,1.7,0.9v-0.8h1.4v5.1c0,0.7-0.1,1.2-0.2,1.5c-0.1,0.3-0.3,0.6-0.5,0.8
				c-0.2,0.2-0.5,0.3-0.8,0.4c-0.3,0.1-0.8,0.2-1.3,0.2c-1,0-1.6-0.2-2-0.5c-0.4-0.3-0.6-0.7-0.6-1.3C153,52.4,153,52.4,153,52.3z
				 M154.3,49c0,0.6,0.1,1,0.4,1.3c0.2,0.3,0.5,0.4,0.9,0.4c0.4,0,0.7-0.1,0.9-0.4c0.3-0.3,0.4-0.7,0.4-1.3c0-0.6-0.1-1-0.4-1.3
				s-0.5-0.4-0.9-0.4c-0.4,0-0.7,0.1-0.9,0.4C154.5,48,154.3,48.4,154.3,49z"/>
		</g>
		<g>
			<path class="st3" d="M163.7,50.1l1.5,0.3c-0.2,0.5-0.5,1-0.9,1.3s-0.9,0.4-1.6,0.4c-1,0-1.7-0.3-2.2-1c-0.4-0.5-0.6-1.2-0.6-2
				c0-0.9,0.2-1.7,0.7-2.2c0.5-0.5,1.1-0.8,1.9-0.8c0.8,0,1.5,0.3,2,0.8c0.5,0.6,0.7,1.4,0.7,2.6h-3.8c0,0.4,0.1,0.8,0.4,1
				c0.2,0.2,0.5,0.4,0.9,0.4c0.2,0,0.4-0.1,0.6-0.2C163.5,50.6,163.6,50.4,163.7,50.1z M163.7,48.6c0-0.4-0.1-0.8-0.3-1
				s-0.5-0.3-0.8-0.3c-0.3,0-0.6,0.1-0.8,0.4c-0.2,0.2-0.3,0.6-0.3,1H163.7z"/>
		</g>
		<g>
			<path class="st3" d="M172.2,51.9h-1.5V49c0-0.6,0-1-0.1-1.2c-0.1-0.2-0.2-0.3-0.3-0.4c-0.1-0.1-0.3-0.2-0.5-0.2
				c-0.3,0-0.5,0.1-0.7,0.2s-0.3,0.3-0.4,0.6c-0.1,0.2-0.1,0.7-0.1,1.3v2.6H167v-5.7h1.4v0.8c0.5-0.6,1.1-1,1.9-1
				c0.3,0,0.6,0.1,0.9,0.2c0.3,0.1,0.5,0.3,0.6,0.5c0.1,0.2,0.2,0.4,0.3,0.6c0.1,0.2,0.1,0.6,0.1,1V51.9z"/>
		</g>
	</g>
</g>
</svg>
