<svg xmlns="http://www.w3.org/2000/svg" viewBox="0 0 337.38 84.77"><defs><style>.cls-1{fill:#97ccef;}.cls-2{fill:#1c75bc;}</style></defs><g id="Layer_2" data-name="Layer 2"><g id="Layer_1-2" data-name="Layer 1"><path class="cls-1" d="M267.72,24.28a8.84,8.84,0,0,1,4-1.83,14,14,0,0,1,4.18-.18,18,18,0,0,1,4.05.86,14,14,0,0,1,1.93.79c.62.3,1.13.56,1.71.81a26.3,26.3,0,0,0,7.15,2,12.22,12.22,0,0,0,7.11-.84,7.86,7.86,0,0,0,1.51-1,18,18,0,0,0,1.29-1.32c.45-.49.87-1,1.35-1.49s.94-1,1.46-1.39a16.56,16.56,0,0,1,7.22-3.77,14.17,14.17,0,0,1,14.75,5.76l-1.61,1.2a13.51,13.51,0,0,0-5.69-4.22,12.57,12.57,0,0,0-7-.61,16.78,16.78,0,0,0-6.74,2.78,15.09,15.09,0,0,0-2.76,2.54c-.44.46-.9,1-1.41,1.47a9.59,9.59,0,0,1-1.67,1.23,10.91,10.91,0,0,1-1.87.94c-.32.13-.66.21-1,.32a5.93,5.93,0,0,1-1,.24,14.27,14.27,0,0,1-4.12.24,25.87,25.87,0,0,1-7.82-2c-.61-.25-1.26-.57-1.82-.83a13.58,13.58,0,0,0-1.67-.68,16.48,16.48,0,0,0-3.54-.79c-2.38-.25-4.92,0-6.66,1.34Z"/><path class="cls-1" d="M287.29,33.91a5.12,5.12,0,0,1-1.49,3.46,5,5,0,0,1-8.59-3.46,5.06,5.06,0,0,1,5.14-5.15,5,5,0,0,1,4.94,5.15Zm-.51,0a4.41,4.41,0,0,0-1.38-3,4.28,4.28,0,0,0-3-1.16,4.33,4.33,0,0,0-3,1.25,4.33,4.33,0,0,0-.1,6,4.33,4.33,0,0,0,7.5-3.07Z"/><path class="cls-1" d="M295.41,55.67a4.42,4.42,0,0,1-8.83,0,4.57,4.57,0,0,1,1.29-3.22,4.4,4.4,0,0,1,6.35.09A4.37,4.37,0,0,1,295.41,55.67Zm-.51,0a3.74,3.74,0,0,0-1.2-2.61,3.64,3.64,0,0,0-2.61-1,3.7,3.7,0,0,0,0,7.39,3.75,3.75,0,0,0,2.73-1.07A3.68,3.68,0,0,0,294.9,55.67Z"/><path class="cls-1" d="M306.61,45a3.59,3.59,0,0,1-3.44,3.43A3.51,3.51,0,0,1,299.55,45a3.63,3.63,0,0,1,1-2.6,3.55,3.55,0,0,1,2.59-1,3.52,3.52,0,0,1,2.51,1.14A3.58,3.58,0,0,1,306.61,45Zm-.51,0a2.83,2.83,0,1,0-2.93,2.92,2.94,2.94,0,0,0,2.12-.81A2.84,2.84,0,0,0,306.1,45Z"/><path class="cls-1" d="M314.73,26.15A4.4,4.4,0,1,1,313.55,23,4.41,4.41,0,0,1,314.73,26.15Zm-.51,0A3.73,3.73,0,0,0,313,23.54a3.7,3.7,0,0,0-5.24,5.23,3.74,3.74,0,0,0,5.35.11A3.65,3.65,0,0,0,314.22,26.15Z"/><path class="cls-1" d="M289.31,39.28a2.39,2.39,0,0,1-3.79,2.08,2.4,2.4,0,0,1-.95-1.6,2.37,2.37,0,0,1,.51-1.84,2.33,2.33,0,0,1,1.7-.89A2.4,2.4,0,0,1,289.31,39.28Zm-.51,0a1.68,1.68,0,1,0-1.59,2,1.75,1.75,0,0,0,1.24-.61A1.67,1.67,0,0,0,288.8,39.33Z"/><path class="cls-1" d="M281.21,27.65a2.43,2.43,0,0,1-2,2.5,2.38,2.38,0,0,1-1.74-.42,2.46,2.46,0,0,1-1-1.6,2.42,2.42,0,0,1,.51-1.85,2.38,2.38,0,0,1,4.23,1.37Zm-.51.05a1.68,1.68,0,0,0-3.33.34,1.67,1.67,0,0,0,1.75,1.6,1.73,1.73,0,0,0,1.24-.6A1.63,1.63,0,0,0,280.7,27.7Z"/><path class="cls-1" d="M303.48,38.74a2.38,2.38,0,0,1-3.78,2.08,2.4,2.4,0,0,1-.45-3.45,2.38,2.38,0,0,1,4.23,1.37Zm-.5,0a1.68,1.68,0,1,0-1.59,1.94,1.73,1.73,0,0,0,1.24-.6A1.67,1.67,0,0,0,303,38.79Z"/><path class="cls-1" d="M288.22,50.81a2.45,2.45,0,0,1-2.05,2.5,2.35,2.35,0,0,1-1.73-.43,2.4,2.4,0,0,1,1.25-4.33A2.4,2.4,0,0,1,288.22,50.81Zm-.51,0a1.68,1.68,0,1,0-1.59,1.94,1.78,1.78,0,0,0,1.25-.6A1.68,1.68,0,0,0,287.71,50.86Z"/><path class="cls-1" d="M315.8,32.56A2.38,2.38,0,0,1,312,34.64a2.39,2.39,0,1,1,3.78-2.08Zm-.51,0a1.68,1.68,0,1,0-1.58,2A1.75,1.75,0,0,0,315,34,1.63,1.63,0,0,0,315.29,32.61Z"/><path class="cls-2" d="M0,18.53,4.25,1.76h58l4.07,16.77-1,.36A46.13,46.13,0,0,0,55.16,8.52Q49.9,4.79,45.65,4.79c-1.81,0-3,.53-3.69,1.58s-1,4-1,8.73V40.81Q41,53,42.42,56.43a7.26,7.26,0,0,0,5.44,4.4l0,1.18q-3.07-.13-6.35-.21t-8.7-.06q-5.12,0-8.18.06t-6,.21V60.83a7,7,0,0,0,5.31-4.18q1.42-3.32,1.42-15.84V15.1c0-4.77-.32-7.67-1-8.73s-1.86-1.58-3.64-1.58q-4.29,0-9.53,3.73A46.29,46.29,0,0,0,1,18.89Z"/><path class="cls-2" d="M51.69,61.93v-.76a12.81,12.81,0,0,0,4.78-4.24,70.25,70.25,0,0,0,5.85-9.84L76.87,18.52h.54L92.56,46.77a105.54,105.54,0,0,0,6.79,11.52q2,2.63,3.65,2.88l0,.76c-1.18-.07-2.42-.11-3.71-.15s-3,0-5.21,0q-4,0-6.74,0c-1.79,0-3.55.08-5.28.15l0-.76a4.17,4.17,0,0,0,2.24-.83,2.32,2.32,0,0,0,.67-1.83,11,11,0,0,0-.81-3.34,56,56,0,0,0-2.42-5.49l-2.21-4.46H66.4l-1,2.19A50.31,50.31,0,0,0,62.94,53a11.68,11.68,0,0,0-.78,3.63,4,4,0,0,0,1.24,3.07,5.81,5.81,0,0,0,3.44,1.43l0,.76c-1.07-.07-2.19-.11-3.34-.15s-2.62,0-4.41,0-3.25,0-4.32,0S52.66,61.86,51.69,61.93ZM78.42,43.07l-5.5-11.64L67.41,43.07Z"/><path class="cls-2" d="M104.17,19.69l5.35,0h11.93c4.57,0,8.07.13,10.47.37a32.89,32.89,0,0,1,6.3,1.19A13,13,0,0,1,144.34,25a8.4,8.4,0,0,1,2.2,5.71q0,5.25-6,8.37t-16.35,3.12l-2.29-.08-3-.11v5.09c0,5.53.34,9.14,1,10.83a5,5,0,0,0,3.75,3.18l0,.83c-1.37-.07-2.81-.11-4.3-.15s-3.52,0-6,0-4.35,0-5.77,0-2.78.08-4.07.15V61.1a4.72,4.72,0,0,0,3.63-3q1-2.4,1-11.06V25.58a5.53,5.53,0,0,0-.87-3.37,5.17,5.17,0,0,0-3-1.7Zm14.68,19.84c.64.12,1.26.22,1.89.28a17.36,17.36,0,0,0,1.94.1q5.56,0,8.54-2.39a8.23,8.23,0,0,0,3-6.82,7.49,7.49,0,0,0-3.1-6.58Q128,22,121.64,22q-.66,0-2.25.09a4,4,0,0,0-.54,0Z"/><path class="cls-2" d="M147.71,58.83l3.54-12.06H152q1.2,6.81,5.08,10.4a14.07,14.07,0,0,0,9.95,3.59q5,0,7.89-2.3a7.63,7.63,0,0,0,2.86-6.31,5.1,5.1,0,0,0-2-4.36q-2-1.53-9.34-3a55.88,55.88,0,0,1-8.59-2.17,13.29,13.29,0,0,1-4.07-2.35,10.79,10.79,0,0,1-2.72-3.74,11.18,11.18,0,0,1-.95-4.55,11.39,11.39,0,0,1,5.32-9.76q5.31-3.72,14.11-3.72a42.75,42.75,0,0,1,8.63.87A36,36,0,0,1,186.11,22l-3,10.28h-.85q-1.36-5.68-4.48-8.54a11.42,11.42,0,0,0-8-2.85,11.14,11.14,0,0,0-7,2.06,6.34,6.34,0,0,0-2.69,5.25,5.3,5.3,0,0,0,.55,2.41,6.18,6.18,0,0,0,1.66,2c1.12.9,3.9,1.74,8.32,2.5,1.78.31,3.15.57,4.12.76q6.77,1.32,10,4.31A10.28,10.28,0,0,1,188,48.07a12.82,12.82,0,0,1-5.68,10.77Q176.66,63,167.51,63A51.81,51.81,0,0,1,156.82,62,37.13,37.13,0,0,1,147.71,58.83Z"/><path class="cls-1" d="M257.73,55.18a43.34,43.34,0,0,1-12.79,6.26,52.51,52.51,0,0,1-15.1,2.06,42.4,42.4,0,0,1-13.46-2.1,34.9,34.9,0,0,1-11.17-6A29,29,0,0,1,197,45a32.45,32.45,0,0,1-2.67-13.58q0-14.06,10.06-22.71T230.88,0a48.72,48.72,0,0,1,13.06,1.72,47.25,47.25,0,0,1,11.94,5.15L251.4,21.38l-1.26-.18q-1.41-8.86-6-13.4T232.06,3.25a17.16,17.16,0,0,0-14.65,7.33q-5.32,7.32-5.33,20.33,0,13.92,5.31,21.63a17.06,17.06,0,0,0,14.89,7.71q8,0,12.64-5.07t6.39-15.77l1.31-.09Z"/><path class="cls-1" d="M263.47,31.55a30.4,30.4,0,0,1,2.73-12.91,31.18,31.18,0,0,1,8.07-10.5,32.65,32.65,0,0,1,10.82-6.08A41,41,0,0,1,298.27,0a41.4,41.4,0,0,1,13.4,2,32,32,0,0,1,10.73,6.2,32,32,0,0,1,8.21,10.59,29.78,29.78,0,0,1,2.73,12.73,29.49,29.49,0,0,1-2.78,12.72,33.58,33.58,0,0,1-8.34,10.82,31.87,31.87,0,0,1-10.69,6.24,38.77,38.77,0,0,1-13.08,2.17,39.8,39.8,0,0,1-13.4-2.24A33.64,33.64,0,0,1,274,54.87a31.45,31.45,0,0,1-7.8-10.56A30.57,30.57,0,0,1,263.47,31.55Zm34.89,28.88q8.81,0,13.11-7.1t4.29-21.69q0-14.59-4.27-21.63T298.36,3q-8.91,0-13.11,7t-4.2,21.7q0,14.78,4.22,21.78T298.36,60.43Z"/><path class="cls-2" d="M301.12,84.57a22.58,22.58,0,0,1,3.79-8.45,23.76,23.76,0,0,1,7-6.18c.75-.45,1.83-1.07,3.24-1.85a28.71,28.71,0,0,0,5.9-4,10.65,10.65,0,0,0,2.44-3.74,13.62,13.62,0,0,0,.77-4.82q0-5.25-2-7.95a6.76,6.76,0,0,0-5.82-2.69,8.43,8.43,0,0,0-6.8,3.13q-2.61,3.13-3.78,9.59l-.77.13-3.05-11.39a37.46,37.46,0,0,1,7.65-2.72,33.57,33.57,0,0,1,7.76-.91q8.29,0,13.44,3.63a11,11,0,0,1,5.14,9.38,9.79,9.79,0,0,1-1.62,5.59,14.93,14.93,0,0,1-5.16,4.43,32.78,32.78,0,0,1-6.55,2.53q-4.71,1.42-6.84,2.27A15.28,15.28,0,0,0,311.32,73a5.23,5.23,0,0,0-1.84,3h15.28a16.77,16.77,0,0,0,6.93-1.26,13.42,13.42,0,0,0,5-4.12l.71.12-4,14c-1.21-.07-2.66-.11-4.36-.15s-3.65-.05-5.86-.05Z"/></g></g></svg>