<svg id="Layer_1" data-name="Layer 1" xmlns="http://www.w3.org/2000/svg" viewBox="0 0 211.9 56.05"><defs><style>.cls-1{fill:#97ccef;}.cls-2{fill:#fff;}.cls-3{fill:#1c75bc;}.cls-4{isolation:isolate;}.cls-5{fill:#2774bb;}</style></defs><path class="cls-1" d="M176.56,25.63a3.65,3.65,0,1,1,2.57-1.07,3.59,3.59,0,0,1-2.48,1.07Zm.13-5.69a2.17,2.17,0,0,0-1.54.64,2.11,2.11,0,0,0-.65,1.49,2.2,2.2,0,0,0,2.15,2.24h0a2.26,2.26,0,0,0,1.64-.64,2.16,2.16,0,0,0,.62-1.45l0-.14a2.12,2.12,0,0,0-.7-1.55A2.15,2.15,0,0,0,176.69,19.94Z"/><path class="cls-2" d="M176.57,18.93a3.13,3.13,0,0,1,3.13,3.12h0a3.21,3.21,0,0,1-.93,2.15,3.11,3.11,0,0,1-2.14.92h-.07a3.12,3.12,0,0,1-3.12-3.05v0a3.13,3.13,0,0,1,3.13-3.13h0m.14,5.88a2.74,2.74,0,0,0,1.92-.78,2.67,2.67,0,0,0,.78-2l0,0a2.71,2.71,0,0,0-.86-1.9,2.66,2.66,0,0,0-1.83-.72,2.7,2.7,0,0,0-1.9.78,2.67,2.67,0,0,0-.79,1.84,2.7,2.7,0,0,0,2.63,2.75h.08m-.14-6.88h0a4.1,4.1,0,1,0,0,8.2h.1a4.09,4.09,0,0,0,2.82-1.21,4.23,4.23,0,0,0,1.22-2.82,4.14,4.14,0,0,0-4.13-4.17Zm.14,5.88h-.05A1.71,1.71,0,0,1,175,22.08a1.69,1.69,0,0,1,1.69-1.64,1.69,1.69,0,0,1,1.69,1.65,1.38,1.38,0,0,0,0,.2,1.67,1.67,0,0,1-1.7,1.52Z"/><path class="cls-1" d="M182,38.74a3.24,3.24,0,0,1-2.21-.87,3.25,3.25,0,0,1,2.14-5.62h0a3.3,3.3,0,0,1,2.44,1,3.16,3.16,0,0,1,.87,2.3A3.29,3.29,0,0,1,182,38.74Zm.13-4.91a1.81,1.81,0,0,0-1.81,1.88,1.81,1.81,0,0,0,3.13,1.16,1.81,1.81,0,0,0-1.32-3Z"/><path class="cls-2" d="M182,32.75a2.74,2.74,0,0,1,2,.87,2.7,2.7,0,0,1,.74,1.94h0A2.78,2.78,0,0,1,182,38.24H182a2.73,2.73,0,0,1-1.87-.74,2.75,2.75,0,0,1,1.82-4.75H182m.11,5.2a2.3,2.3,0,0,0,1.7-.74,2.32,2.32,0,0,0-.13-3.27,2.31,2.31,0,1,0-1.57,4m-.11-6.2h-.09a3.76,3.76,0,0,0-3.65,3.84,3.8,3.8,0,0,0,1.18,2.64,3.71,3.71,0,0,0,2.55,1h.1a3.79,3.79,0,0,0,3.65-3.64,3.68,3.68,0,0,0-1-2.66A3.76,3.76,0,0,0,182,31.75Zm.11,5.2a1.3,1.3,0,0,1-.88-.35,1.32,1.32,0,0,1-.08-1.85,1.32,1.32,0,0,1,1-.42,1.26,1.26,0,0,1,.88.35,1.28,1.28,0,0,1,.42.92,1.3,1.3,0,0,1-.34.93,1.32,1.32,0,0,1-1,.42Z"/><path class="cls-1" d="M189.48,31.57a2.62,2.62,0,0,1-1.8-.71,2.79,2.79,0,0,1-.87-1.9,2.84,2.84,0,0,1,.78-2,2.69,2.69,0,0,1,1.92-.8A2.68,2.68,0,0,1,192.2,29a2.74,2.74,0,0,1-2.6,2.61Zm.11-3.84a1.26,1.26,0,0,0-1.22,1.3,1.25,1.25,0,0,0,1.22,1.22h0a1.33,1.33,0,0,0,.95-.36,1.24,1.24,0,0,0,.34-.92,1.25,1.25,0,0,0-1.25-1.24v-.5Z"/><path class="cls-2" d="M189.52,26.68a2.19,2.19,0,0,1,2.18,2.26h0a2.23,2.23,0,0,1-2.13,2.13h-.08a2.11,2.11,0,0,1-1.47-.58,2.23,2.23,0,0,1-.71-1.55,2.34,2.34,0,0,1,.64-1.61,2.22,2.22,0,0,1,1.57-.65m.12,4.07a1.79,1.79,0,0,0,1.24-.5,1.69,1.69,0,0,0,.5-1.31,1.76,1.76,0,0,0-1.75-1.71h-.06a1.76,1.76,0,0,0,0,3.52h.07m-.12-5.07a3.19,3.19,0,0,0-2.28.95,3.3,3.3,0,0,0-.93,2.32,3.25,3.25,0,0,0,1,2.28,3.09,3.09,0,0,0,2.14.84h.12a3.2,3.2,0,0,0,2.14-5.48,3.16,3.16,0,0,0-2.23-.91Zm.12,4.07h0a.76.76,0,0,1,0-1.52h0a.76.76,0,0,1,.78.74.71.71,0,0,1-.21.58.79.79,0,0,1-.53.2Z"/><path class="cls-1" d="M194,20.42a3.24,3.24,0,0,1-2.29-5.53,3.24,3.24,0,0,1,4.57,0l.09.1a3.16,3.16,0,0,1,.87,2.3A3.29,3.29,0,0,1,194,20.42Zm.12-4.91a1.81,1.81,0,0,0-1.32.58,1.86,1.86,0,0,0-.48,1.17,1.78,1.78,0,0,0,.51,1.28,1.82,1.82,0,0,0,1.27.56h0a1.84,1.84,0,0,0,1.3-.52,1.8,1.8,0,0,0-1.28-3.07Z"/><path class="cls-2" d="M194,14.43a2.69,2.69,0,0,1,1.91.79l.08.08a2.7,2.7,0,0,1,.74,1.94h0A2.78,2.78,0,0,1,194,19.92H194a2.75,2.75,0,0,1,0-5.49m.12,5.17a2.29,2.29,0,0,0,2.29-2.36h0a2.34,2.34,0,0,0-.74-1.62,2.28,2.28,0,0,0-1.56-.61,2.31,2.31,0,0,0-1.69.74,2.36,2.36,0,0,0-.61,1.49,2.32,2.32,0,0,0,2.27,2.36h0M194,13.43h0a3.7,3.7,0,0,0-2.66,1.11A3.74,3.74,0,0,0,194,20.92h.09a3.79,3.79,0,0,0,3.65-3.64,3.68,3.68,0,0,0-1-2.66l-.1-.11A3.69,3.69,0,0,0,194,13.43Z"/><path class="cls-1" d="M179.48,27.5a2,2,0,0,1-1.55-3.24,2,2,0,0,1,1.42-.75h.11a2,2,0,0,1,2,1.87,2,2,0,0,1-1.68,2.09Zm.1-2.44a.56.56,0,0,0-.56.6.53.53,0,0,0,.53.48.7.7,0,0,0,.5-.2.52.52,0,0,0,.09-.42.51.51,0,0,0-.5-.47Z"/><path class="cls-2" d="M179.46,24a1.5,1.5,0,0,1,1.49,1.4h0A1.52,1.52,0,0,1,179.68,27l-.2,0a1.5,1.5,0,0,1-.1-3h.08m.09,2.63h.1a1,1,0,0,0,.77-.37,1,1,0,0,0,.21-.84h0a1,1,0,0,0-1-.87h-.2a1,1,0,0,0,.11,2.07M179.46,23h-.12a2.5,2.5,0,0,0,.14,5,2,2,0,0,0,.34,0A2.54,2.54,0,0,0,182,25.39,2.51,2.51,0,0,0,179.46,23Zm.09,2.63a.05.05,0,0,1,0,0l.13-.06a.2.2,0,0,1,0,.07h-.1Z"/><path class="cls-1" d="M174.45,20.27A2,2,0,0,1,172.92,17a2,2,0,0,1,1.42-.73h.11a2,2,0,0,1,.12,4Zm.07-2.5a.49.49,0,0,0-.36.2.55.55,0,0,0-.12.39.53.53,0,0,0,.15.41.56.56,0,0,0,.35.15.66.66,0,0,0,.46-.23.49.49,0,0,0,.1-.41.62.62,0,0,1,0-.13.52.52,0,0,0-.51-.38Z"/><path class="cls-2" d="M174.45,16.8a1.47,1.47,0,0,1,1.47,1.4h0a1.48,1.48,0,0,1-1.38,1.57h-.09A1.48,1.48,0,0,1,173,18.38a1.53,1.53,0,0,1,.33-1,1.52,1.52,0,0,1,1.06-.55h.09m.09,2.61h.08a1.12,1.12,0,0,0,.76-.4,1,1,0,0,0,.21-.83l0,0a1,1,0,0,0-1-.93h-.11a1,1,0,0,0-.93,1.14,1,1,0,0,0,1,1h0m-.09-3.61h-.14a2.48,2.48,0,0,0-1.79.93,2.45,2.45,0,0,0-.55,1.71,2.48,2.48,0,0,0,2.48,2.33h.15a2.46,2.46,0,0,0,1.7-.83,2.49,2.49,0,0,0-1.85-4.14Zm.1,2.61s0-.07,0-.1,0,0,0,0h0s0,.07,0,.11l-.06,0Z"/><path class="cls-1" d="M188.27,27.16a2,2,0,0,1-1.16-.39,2,2,0,0,1-.79-1.33,2,2,0,1,1,3.93-.38,2,2,0,0,1-1.68,2.07A1.6,1.6,0,0,1,188.27,27.16Zm.11-2.43a.57.57,0,0,0-.44.2.55.55,0,0,0-.12.39.54.54,0,0,0,.53.48.67.67,0,0,0,.5-.21.49.49,0,0,0,.09-.4.51.51,0,0,0-.5-.47Z"/><path class="cls-2" d="M188.29,23.66a1.46,1.46,0,0,1,1.46,1.42h0a1.51,1.51,0,0,1-1.27,1.55l-.21,0a1.47,1.47,0,0,1-.87-.29,1.53,1.53,0,0,1-.59-1,1.51,1.51,0,0,1,.31-1.14,1.49,1.49,0,0,1,1.17-.57m.06,2.64h.1a1,1,0,0,0,.77-.37,1,1,0,0,0,.21-.83h0a1,1,0,0,0-1-.87h-.2a1,1,0,0,0,.11,2.06m-.06-3.64h0a2.5,2.5,0,0,0-1.48,4.51,2.42,2.42,0,0,0,1.46.49l.36,0a2.52,2.52,0,0,0,2.12-2.57,2.47,2.47,0,0,0-2.46-2.4Zm.06,2.64a0,0,0,0,1,0,0,.61.61,0,0,0,.12-.05.13.13,0,0,1,0,.06h-.1Z"/><path class="cls-1" d="M178.79,34.66a2,2,0,0,1-1.6-3.13s.07-.09.07-.1a1.94,1.94,0,0,1,1.43-.75h.1a2,2,0,0,1,2,1.87,2,2,0,0,1-1.68,2.08Zm.08-2.51a.54.54,0,0,0-.48.59.53.53,0,0,0,.15.41.5.5,0,0,0,.35.14.57.57,0,0,0,.47-.19.5.5,0,0,0,.11-.42s0-.07,0-.1a.53.53,0,0,0-.53-.43Z"/><path class="cls-2" d="M178.79,31.18a1.48,1.48,0,0,1,1.48,1.4h0A1.51,1.51,0,0,1,179,34.14l-.21,0a1.44,1.44,0,0,1-.86-.29,1.47,1.47,0,0,1-.34-2l.06-.08a1.49,1.49,0,0,1,1.06-.56h.08m.1,2.61H179a1,1,0,0,0,.77-.37,1,1,0,0,0,.22-.83h0a1,1,0,0,0-1-.93h-.11a1,1,0,0,0-.93,1.14,1,1,0,0,0,1,1h0m-.1-3.61h-.12a2.45,2.45,0,0,0-1.81.95l-.08.11a2.48,2.48,0,0,0,.57,3.45,2.43,2.43,0,0,0,1.44.47l.36,0a2.52,2.52,0,0,0,2.12-2.59,2.5,2.5,0,0,0-2.48-2.36Zm.11,2.61s0-.06,0-.1,0,0,0,0h0a.05.05,0,0,1,0,0s0,.06,0,.1Z"/><path class="cls-1" d="M195.93,23.33a2,2,0,0,1-1.55-3.24,2,2,0,0,1,1.43-.74h.1a2,2,0,0,1,2,1.87,2,2,0,0,1-1.67,2.08Zm.18-2.37H196a.5.5,0,0,0-.31.22.47.47,0,0,0-.07.38.49.49,0,0,0,.48.39.61.61,0,0,0,.39-.21.49.49,0,0,0,.09-.4v-.06A.52.52,0,0,0,196.11,21Z"/><path class="cls-2" d="M195.91,19.85a1.48,1.48,0,0,1,1.48,1.4,1.51,1.51,0,0,1-1.26,1.56l-.2,0a1.5,1.5,0,0,1-1.16-2.43,1.52,1.52,0,0,1,1.06-.55h.08m.17,2.61a1,1,0,0,0,.78-.38,1,1,0,0,0,.21-.83h0a1,1,0,0,0-1-.79l-.21,0a1,1,0,0,0,.18,2m-.17-3.61h-.12a2.49,2.49,0,0,0,.14,5,2,2,0,0,0,.34,0,2.53,2.53,0,0,0,2.12-2.59,2.5,2.5,0,0,0-2.48-2.36Z"/><path class="cls-1" d="M182.47,19.43l-.79,0a16.41,16.41,0,0,1-5-1.31c-.31-.12-.66-.29-1-.44l-.16-.08c-.33-.15-.66-.29-1-.41a9.43,9.43,0,0,0-2.07-.46,5.3,5.3,0,0,0-1-.08,5.47,5.47,0,0,0-2.89.82.52.52,0,0,1-.27.07.49.49,0,0,1-.38-.18l-.71-.85a.47.47,0,0,1-.14-.14.49.49,0,0,1,.09-.65,6,6,0,0,1,2.68-1.24,9.46,9.46,0,0,1,1.76-.17c.33,0,.66,0,1,.05a11.81,11.81,0,0,1,2.61.56,8.3,8.3,0,0,1,1.27.53l1,.49a15.92,15.92,0,0,0,4.29,1.2,7.23,7.23,0,0,0,1.3.12,7,7,0,0,0,2.84-.61,4.65,4.65,0,0,0,.83-.53c.24-.23.5-.49.74-.77l.27-.31c.19-.22.39-.44.6-.65l.25-.25a8.43,8.43,0,0,1,.69-.64A10.77,10.77,0,0,1,194.08,11a9.68,9.68,0,0,1,2.08-.23,9.27,9.27,0,0,1,7.64,4,.49.49,0,0,1-.12.68l-1,.74a.47.47,0,0,1-.3.1.49.49,0,0,1-.39-.19,7.73,7.73,0,0,0-3.32-2.46,7.29,7.29,0,0,0-2.65-.5,7.62,7.62,0,0,0-1.43.14,10.19,10.19,0,0,0-4,1.64,9.55,9.55,0,0,0-1.62,1.5l-.24.27c-.21.23-.44.48-.67.69a8.49,8.49,0,0,1-2.35,1.44l-.43.14-.22.07a5.11,5.11,0,0,1-.7.17A9.85,9.85,0,0,1,182.47,19.43Z"/><path class="cls-2" d="M196.16,11.3a8.76,8.76,0,0,1,7.22,3.8l-1,.74a8.28,8.28,0,0,0-3.53-2.62,7.81,7.81,0,0,0-2.83-.53,7.93,7.93,0,0,0-1.53.15,10.56,10.56,0,0,0-4.19,1.72,10.25,10.25,0,0,0-1.71,1.58c-.27.29-.56.64-.87.92a7.51,7.51,0,0,1-2.2,1.34c-.2.08-.41.13-.62.2a3.3,3.3,0,0,1-.62.15,9.11,9.11,0,0,1-1.81.18q-.37,0-.75,0a16,16,0,0,1-4.85-1.27c-.38-.15-.79-.35-1.13-.51s-.68-.3-1-.43a10.3,10.3,0,0,0-2.2-.49,5.62,5.62,0,0,0-1-.08,6,6,0,0,0-3.16.89l-.79-1,0,0A5.51,5.51,0,0,1,170,14.94a9.35,9.35,0,0,1,1.67-.16c.31,0,.62,0,.93.05a11.22,11.22,0,0,1,2.51.53,9.16,9.16,0,0,1,1.2.5l1.06.5a16.4,16.4,0,0,0,4.44,1.24,7.94,7.94,0,0,0,1.37.13,7.45,7.45,0,0,0,3-.65,4.21,4.21,0,0,0,.94-.61,8.83,8.83,0,0,0,.8-.82c.28-.31.54-.64.84-.93a12.33,12.33,0,0,1,.91-.86,10.2,10.2,0,0,1,4.47-2.34,8.88,8.88,0,0,1,2-.22m0-1a9.49,9.49,0,0,0-2.19.25,11.23,11.23,0,0,0-4.89,2.55,7.73,7.73,0,0,0-.72.66l-.24.24c-.23.23-.43.46-.63.68l-.26.3a10,10,0,0,1-.71.74,4.32,4.32,0,0,1-.73.47,6.51,6.51,0,0,1-2.6.54,6.75,6.75,0,0,1-1.19-.11H182a15.42,15.42,0,0,1-4.16-1.16l-1-.49a9.72,9.72,0,0,0-1.31-.55,12.06,12.06,0,0,0-2.73-.57,8.64,8.64,0,0,0-1-.06,9.69,9.69,0,0,0-1.86.18,6.4,6.4,0,0,0-2.9,1.35,1,1,0,0,0-.21,1.32,1,1,0,0,0,.3.29l.61.73a1,1,0,0,0,.76.36,1,1,0,0,0,.53-.15,5,5,0,0,1,2.63-.74,4.76,4.76,0,0,1,.84.07h.05a8.68,8.68,0,0,1,2,.43c.3.12.61.25.93.4l.16.08c.32.14.68.31,1,.45a16.77,16.77,0,0,0,5.11,1.34l.85,0a10.07,10.07,0,0,0,2-.19,4.94,4.94,0,0,0,.78-.19l.2-.06.47-.16a8.78,8.78,0,0,0,2.48-1.51,9.9,9.9,0,0,0,.72-.75l.23-.25a9.23,9.23,0,0,1,1.56-1.45,9.45,9.45,0,0,1,3.78-1.54,6.32,6.32,0,0,1,1.35-.14,6.94,6.94,0,0,1,2.47.46,7.28,7.28,0,0,1,3.11,2.31,1,1,0,0,0,.78.38,1,1,0,0,0,.6-.19l1-.74a1,1,0,0,0,.23-1.37,9.76,9.76,0,0,0-8.05-4.24Z"/><path class="cls-3" d="M33.48,40a.5.5,0,0,1-.41-.22.58.58,0,0,1-.11-.31V39a.49.49,0,0,1,.28-.44,7.46,7.46,0,0,0,2.81-2.48,42.34,42.34,0,0,0,3.59-6l9-17.73a.5.5,0,0,1,.44-.28h.34a.49.49,0,0,1,.44.26l9.4,17.47a64.75,64.75,0,0,0,4.2,7.11,3.62,3.62,0,0,0,2,1.66.49.49,0,0,1,.34.47v.47a.5.5,0,0,1-.5.5c-.42,0-.86,0-1.31,0l-1,0H55.59c-1.12,0-2.18,0-3.23.09h0a.51.51,0,0,1-.33-.13.5.5,0,0,1-.17-.37V39a.5.5,0,0,1,.46-.5,2.15,2.15,0,0,0,1.15-.42,1,1,0,0,0,.21-.69,6.81,6.81,0,0,0-.47-1.93,32.58,32.58,0,0,0-1.48-3.36l-1.25-2.5H42.91l-.5,1.07a31.83,31.83,0,0,0-1.5,3.45,7,7,0,0,0-.45,2.12,2,2,0,0,0,.62,1.51,3,3,0,0,0,1.83.75.5.5,0,0,1,.46.5v.47a.51.51,0,0,1-.15.37.56.56,0,0,1-.35.13h0c-.66,0-1.34-.07-2.05-.09H35.38a11.67,11.67,0,0,0-1.82.09ZM49.27,27.24l-2.63-5.55L44,27.24Z"/><path class="cls-2" d="M49.43,12.54,58.83,30a65.74,65.74,0,0,0,4.22,7.15A4.09,4.09,0,0,0,65.31,39v.47c-.73,0-1.5-.07-2.3-.09H55.59c-1.12,0-2.2,0-3.28.09V39a2.8,2.8,0,0,0,1.4-.51,1.42,1.42,0,0,0,.41-1.14,6.87,6.87,0,0,0-.5-2.08,31.07,31.07,0,0,0-1.5-3.4l-1.38-2.77H42.59L42,30.46A34.83,34.83,0,0,0,40.44,34,7.6,7.6,0,0,0,40,36.22a2.53,2.53,0,0,0,.77,1.9,3.57,3.57,0,0,0,2.14.89v.47q-1-.06-2.07-.09H35.38a13,13,0,0,0-1.9.09l0,0V39a7.88,7.88,0,0,0,3-2.64,42.65,42.65,0,0,0,3.63-6.1l9-17.73h.34m-6.21,15.2h6.84l-3.42-7.22-3.42,7.22m6.21-16.2h-.34a1,1,0,0,0-.89.55l-9,17.73a42.13,42.13,0,0,1-3.55,6A6.88,6.88,0,0,1,33,38.12a1,1,0,0,0-.55.89v.44a1,1,0,0,0,.17.56,1.09,1.09,0,0,0,.87.47h.13a12,12,0,0,1,1.75-.08H40.8c.68,0,1.36,0,2,.09h.06a1,1,0,0,0,.69-.27,1,1,0,0,0,.31-.73V39a1,1,0,0,0-.93-1,2.56,2.56,0,0,1-1.55-.64A1.54,1.54,0,0,1,41,36.26a6.55,6.55,0,0,1,.42-1.94,31.28,31.28,0,0,1,1.47-3.41l.38-.8h6.89l1.11,2.22a31.23,31.23,0,0,1,1.46,3.3,6.22,6.22,0,0,1,.44,1.81.44.44,0,0,1-.09.31,1.9,1.9,0,0,1-.81.27,1,1,0,0,0-.92,1v.47a1,1,0,0,0,.33.74,1,1,0,0,0,.67.26h.09c1-.09,2.08-.09,3.19-.09H63l1,0c.44,0,.89,0,1.33,0a1,1,0,0,0,1-1V39a1,1,0,0,0-.68-.95,3.1,3.1,0,0,1-1.71-1.39.16.16,0,0,0,0-.07,63.06,63.06,0,0,1-4.15-7L50.31,12.07a1,1,0,0,0-.88-.53ZM44.8,26.74l1.84-3.88,1.84,3.88Z"/><path class="cls-3" d="M65.57,40a.46.46,0,0,1-.33-.13.48.48,0,0,1-.17-.37V39a.5.5,0,0,1,.42-.49,2.46,2.46,0,0,0,1.87-1.53c.37-.94.56-3.19.56-6.68V16.88a2.88,2.88,0,0,0-.46-1.82,2.85,2.85,0,0,0-1.5-.78.5.5,0,0,1-.42-.49v-.51a.55.55,0,0,1,.5-.55H76.76c2.85,0,5,.08,6.56.23a21,21,0,0,1,4,.75,8.65,8.65,0,0,1,4,2.43,5.69,5.69,0,0,1,1.54,3.94c0,2.36-1.34,4.25-4,5.63s-6,2-10.43,2l-2.8-.09v2.64c0,3.35.2,5.55.59,6.54a2.61,2.61,0,0,0,2,1.69.5.5,0,0,1,.4.49v.51a.48.48,0,0,1-.15.36.5.5,0,0,1-.35.14h0c-.85,0-1.73-.07-2.66-.09H68.09a21.58,21.58,0,0,0-2.46.09ZM75.65,25.13a11.48,11.48,0,0,0,1.86.15h.06l.51,0a7.77,7.77,0,0,0,4.47-1.41,4.6,4.6,0,0,0,1.62-3.79,4.11,4.11,0,0,0-1.71-3.68,9.8,9.8,0,0,0-5.52-1.24c-.31,0-.71,0-1.29.05Z"/><path class="cls-2" d="M76.76,13.23q4.26,0,6.5.23a20.59,20.59,0,0,1,3.91.73A8.14,8.14,0,0,1,91,16.48a5.16,5.16,0,0,1,1.41,3.59q0,3.27-3.73,5.19t-10.2,1.93L77,27.14l-1.88-.06v3.16q0,5.15.62,6.72a3.12,3.12,0,0,0,2.33,2v.51q-1.27-.06-2.67-.09H68.09a22.75,22.75,0,0,0-2.52.09V39a2.91,2.91,0,0,0,2.25-1.84c.4-1,.6-3.27.6-6.86V16.88a3.44,3.44,0,0,0-.54-2.09,3.35,3.35,0,0,0-1.84-1v-.56H76.76m.74,12.55h0l.55,0a8.24,8.24,0,0,0,4.75-1.5,5.07,5.07,0,0,0,1.84-4.23A4.61,4.61,0,0,0,82.75,16a10.26,10.26,0,0,0-5.81-1.33h-.06c-.28,0-.74,0-1.4.06h-.33v10.8a11.64,11.64,0,0,0,2.35.24m-.74-13.55H66a1,1,0,0,0-1,1v.56a1,1,0,0,0,.83,1,2.28,2.28,0,0,1,1.22.63,2.48,2.48,0,0,1,.34,1.41.13.13,0,0,0,0,.06V30.26c0,4.27-.28,5.89-.52,6.49A2,2,0,0,1,65.41,38a1,1,0,0,0-.84,1v.51a1,1,0,0,0,.34.75,1,1,0,0,0,.66.25h.12a20.44,20.44,0,0,1,2.4-.09h7.32c.92,0,1.81,0,2.65.09h0a1,1,0,0,0,.69-.27,1,1,0,0,0,.31-.73V39a1,1,0,0,0-.81-1,2.09,2.09,0,0,1-1.57-1.35c-.27-.67-.57-2.3-.57-6.39V28.11l.85,0,1.42.05h0c4.49,0,8.08-.69,10.69-2,2.84-1.47,4.27-3.51,4.27-6.08A6.12,6.12,0,0,0,91.7,15.8a9,9,0,0,0-4.26-2.57,20.78,20.78,0,0,0-4.09-.76c-1.5-.16-3.73-.24-6.59-.24Zm-.61,3.47c.32,0,.55,0,.73,0h.06a9.37,9.37,0,0,1,5.24,1.15A3.63,3.63,0,0,1,83.68,20a.24.24,0,0,0,0,.12,4.15,4.15,0,0,1-1.45,3.38,7.32,7.32,0,0,1-4.15,1.29l-.48,0h-.07l0,1v-1a12.22,12.22,0,0,1-1.35-.08v-9Z"/><path class="cls-3" d="M106,40.63l-.74,0h-.12a32.56,32.56,0,0,1-6.6-.67A23.22,23.22,0,0,1,93,38a.47.47,0,0,1-.27-.12l-.07-.07a.5.5,0,0,1,0-.65.2.2,0,0,1,.09-.09l2.1-7.2a.51.51,0,0,1,.48-.36h.49a.5.5,0,0,1,.5.44,10.65,10.65,0,0,0,3,6.16,8.18,8.18,0,0,0,5.47,2.09h.8a7.13,7.13,0,0,0,4.16-1.33,4.28,4.28,0,0,0,1.56-3.5A2.68,2.68,0,0,0,110.19,31c-.77-.57-2.66-1.16-5.6-1.76A35.84,35.84,0,0,1,99.23,28a9.11,9.11,0,0,1-2.72-1.57,7.13,7.13,0,0,1-1.82-2.5,7.36,7.36,0,0,1-.64-3,7.55,7.55,0,0,1,3.54-6.48,15.44,15.44,0,0,1,8.27-2.4l.78,0h0a27.38,27.38,0,0,1,5.42.55,22.69,22.69,0,0,1,5,1.64.49.49,0,0,1,.27.59l-1.85,6.37a.5.5,0,0,1-.48.36h-.53a.5.5,0,0,1-.49-.41,9.53,9.53,0,0,0-2.64-5,6.57,6.57,0,0,0-4.34-1.62h-.63a6.29,6.29,0,0,0-3.7,1.2,3.4,3.4,0,0,0-1.47,2.84,2.93,2.93,0,0,0,.29,1.28,3.17,3.17,0,0,0,.86,1.06c.61.5,2.28,1,4.95,1.46,1.1.19,2,.35,2.57.47a13.09,13.09,0,0,1,6.41,2.78,6.86,6.86,0,0,1,2.18,5.33,8.46,8.46,0,0,1-3.75,7.08A15.54,15.54,0,0,1,106,40.63Z"/><path class="cls-2" d="M105.87,12.48l.74,0h0A26.48,26.48,0,0,1,112,13a22.38,22.38,0,0,1,4.93,1.6L115.05,21h-.53a10.11,10.11,0,0,0-2.78-5.3,7.09,7.09,0,0,0-4.69-1.78h-.63a6.86,6.86,0,0,0-4,1.29,3.92,3.92,0,0,0-1.67,3.25,3.36,3.36,0,0,0,.34,1.5,3.62,3.62,0,0,0,1,1.23c.69.57,2.42,1.08,5.17,1.56,1.09.19,2,.35,2.55.47a12.54,12.54,0,0,1,6.2,2.68,6.31,6.31,0,0,1,2,4.92,8,8,0,0,1-3.53,6.68A15,15,0,0,1,106,40.13l-.72,0h-.14a32.29,32.29,0,0,1-6.5-.66,23.07,23.07,0,0,1-5.57-2L95.26,30h.49a11.15,11.15,0,0,0,3.15,6.45,8.72,8.72,0,0,0,5.83,2.24h.8A7.59,7.59,0,0,0,110,37.27a4.75,4.75,0,0,0,1.77-3.92,3.17,3.17,0,0,0-1.26-2.71c-.85-.63-2.78-1.24-5.81-1.85a34.77,34.77,0,0,1-5.3-1.31A8.24,8.24,0,0,1,96.83,26a6.71,6.71,0,0,1-1.69-2.32,7,7,0,0,1-.59-2.83,7.11,7.11,0,0,1,3.3-6.06,15,15,0,0,1,8-2.32M93,37.45l.08,0v0L93,37.45m12.88-26A16,16,0,0,0,97.32,14a8.15,8.15,0,0,0-3.09,10.13,7.65,7.65,0,0,0,1.94,2.67A9.51,9.51,0,0,0,99,28.42a36.56,36.56,0,0,0,5.48,1.36c3.55.71,4.89,1.3,5.38,1.67a2.19,2.19,0,0,1,.86,1.85.31.31,0,0,0,0,.1,3.77,3.77,0,0,1-1.37,3.08,6.62,6.62,0,0,1-3.85,1.22h-.8a7.73,7.73,0,0,1-5.14-2,10.21,10.21,0,0,1-2.84-5.85,1,1,0,0,0-1-.88h-.49a1,1,0,0,0-1,.72L92.23,36.8l0,.06a1,1,0,0,0,.11,1.3l.07.07a1,1,0,0,0,.49.27,24.11,24.11,0,0,0,5.58,1.93,33.72,33.72,0,0,0,6.71.68h.12l.74,0a16.06,16.06,0,0,0,9-2.79,9,9,0,0,0,4-7.49,7.35,7.35,0,0,0-2.31-5.67l-.06-.05A13.5,13.5,0,0,0,110,22.25c-.56-.12-1.42-.27-2.55-.47-3.4-.6-4.41-1.1-4.71-1.35a2.65,2.65,0,0,1-.74-.9,2.38,2.38,0,0,1-.24-1.05A2.93,2.93,0,0,1,103,16a5.8,5.8,0,0,1,3.42-1.11h.63a6.14,6.14,0,0,1,4,1.51,9,9,0,0,1,2.48,4.75,1,1,0,0,0,1,.82h.53a1,1,0,0,0,1-.72l1.85-6.37a1,1,0,0,0-.54-1.19,23.84,23.84,0,0,0-5.15-1.67,27.74,27.74,0,0,0-5.53-.56l-.77,0Z"/><path class="cls-1" d="M143.83,40.92a26.82,26.82,0,0,1-8.33-1.32,22.1,22.1,0,0,1-7.09-3.84,18.66,18.66,0,0,1-5.24-6.64,20.76,20.76,0,0,1-1.71-8.65A18.09,18.09,0,0,1,127.88,6c4.25-3.64,9.91-5.49,16.81-5.49h.11a31,31,0,0,1,8.13,1.09,29.91,29.91,0,0,1,7.53,3.24.5.5,0,0,1,.22.58l-2.78,9a.5.5,0,0,1-.48.35h-.07l-.78-.11a.5.5,0,0,1-.42-.42c-.56-3.54-1.76-6.25-3.57-8a9.61,9.61,0,0,0-6.7-2.7h-.78a10.08,10.08,0,0,0-8.3,4.35c-2.14,2.94-3.23,7.09-3.23,12.34,0,5.63,1.08,10.05,3.21,13.14a10.06,10.06,0,0,0,8.44,4.57h.85a9.63,9.63,0,0,0,7-3c1.83-2,3.13-5.22,3.87-9.53a.51.51,0,0,1,.46-.42l.84,0a.5.5,0,0,1,.48.35l3.19,9.84a.49.49,0,0,1-.19.56,27.21,27.21,0,0,1-8.14,4,33,33,0,0,1-9.16,1.29Z"/><path class="cls-2" d="M144.8,1a30.35,30.35,0,0,1,8,1.07,29.33,29.33,0,0,1,7.41,3.19l-2.78,9-.78-.11q-.87-5.49-3.71-8.32A10.16,10.16,0,0,0,145.88,3h-.78a10.63,10.63,0,0,0-8.72,4.56q-3.3,4.56-3.31,12.63,0,8.64,3.29,13.42a10.6,10.6,0,0,0,8.86,4.79h.84a10,10,0,0,0,7.32-3.15q2.87-3.13,4-9.79l.81,0,3.19,9.84a26.75,26.75,0,0,1-8,3.89,32.38,32.38,0,0,1-9,1.27h-.53a26.5,26.5,0,0,1-8.18-1.3,21.51,21.51,0,0,1-6.93-3.75,18.07,18.07,0,0,1-5.1-6.46A20.15,20.15,0,0,1,122,20.48a17.74,17.74,0,0,1,6.24-14.1Q134.47,1,144.69,1h.11m0-1h-.11c-7,0-12.79,1.89-17.14,5.61A18.63,18.63,0,0,0,121,20.49a21.06,21.06,0,0,0,1.75,8.82,19.1,19.1,0,0,0,5.39,6.84,22.29,22.29,0,0,0,7.25,3.92,27.15,27.15,0,0,0,8.48,1.35h.53a33.59,33.59,0,0,0,9.3-1.31,28.14,28.14,0,0,0,8.3-4,1,1,0,0,0,.38-1.13l-3.19-9.84a1,1,0,0,0-1-.69h-.06l-.81,0a1,1,0,0,0-.92.83c-.73,4.22-2,7.35-3.76,9.29a9.08,9.08,0,0,1-6.58,2.82h-.84a9.56,9.56,0,0,1-8-4.34c-2.08-3-3.13-7.34-3.13-12.87,0-5.14,1.05-9.2,3.12-12A9.62,9.62,0,0,1,145.1,4h.78a9.15,9.15,0,0,1,6.36,2.56c1.72,1.71,2.87,4.32,3.42,7.76a1,1,0,0,0,.84.83l.78.11h.14a1,1,0,0,0,1-.7l2.78-9a1,1,0,0,0-.44-1.15,30.23,30.23,0,0,0-7.66-3.3A31.15,31.15,0,0,0,144.8,0Z"/><path class="cls-1" d="M186.52,40.92a24.84,24.84,0,0,1-8.37-1.44,21.14,21.14,0,0,1-7-4.09,20,20,0,0,1-5-6.73,19.81,19.81,0,0,1,0-16.28,19.77,19.77,0,0,1,5.13-6.69,20.81,20.81,0,0,1,6.94-3.87,27.89,27.89,0,0,1,16.8,0,21.17,21.17,0,0,1,12,10.66,19,19,0,0,1,1.75,8.13A18.78,18.78,0,0,1,207,28.7a21.28,21.28,0,0,1-5.3,6.89,20.17,20.17,0,0,1-6.79,4,24.8,24.8,0,0,1-8.14,1.37Zm.54-37.57h-.46c-3.56,0-6.08,1.34-7.74,4.08s-2.54,7.23-2.54,13.21.86,10.45,2.56,13.26A8.33,8.33,0,0,0,186.05,38l.5,0H187a8.39,8.39,0,0,0,7.23-4.17c1.74-2.84,2.61-7.28,2.61-13.21S196,10.3,194.3,7.48A8.44,8.44,0,0,0,187.06,3.35Z"/><path class="cls-2" d="M186.63,1a27.58,27.58,0,0,1,8.25,1.27,20.75,20.75,0,0,1,11.7,10.4,18.3,18.3,0,0,1,1.7,7.9,18,18,0,0,1-1.73,7.9,20.7,20.7,0,0,1-5.17,6.72,19.84,19.84,0,0,1-6.63,3.87,24.29,24.29,0,0,1-8,1.34h-.26A24.44,24.44,0,0,1,178.31,39a20.86,20.86,0,0,1-6.86-4,19.35,19.35,0,0,1-4.84-6.56,19,19,0,0,1-1.7-7.87h0v0a19,19,0,0,1,1.7-8,19.45,19.45,0,0,1,5-6.52,20.63,20.63,0,0,1,6.77-3.78A27.68,27.68,0,0,1,186.63,1m-.58,37.52.52,0H187a8.83,8.83,0,0,0,7.66-4.42q2.69-4.38,2.68-13.46T194.72,7.22a8.88,8.88,0,0,0-7.66-4.37h-.49a8.84,8.84,0,0,0-8.14,4.32q-2.61,4.32-2.61,13.47t2.63,13.52a8.81,8.81,0,0,0,7.6,4.37M186.63,0a28.21,28.21,0,0,0-8.55,1.32,21.29,21.29,0,0,0-7.11,4,20.1,20.1,0,0,0-5.26,6.86,20.32,20.32,0,0,0,0,16.7,20.34,20.34,0,0,0,5.09,6.89A21.74,21.74,0,0,0,178,40a25.49,25.49,0,0,0,8.53,1.46h.26a25.5,25.5,0,0,0,8.3-1.39,21,21,0,0,0,7-4.07,21.62,21.62,0,0,0,5.4-7,19.14,19.14,0,0,0,1.83-8.35,19.46,19.46,0,0,0-1.79-8.31A21.69,21.69,0,0,0,195.22,1.35,28.27,28.27,0,0,0,186.63,0Zm-.58,37.52a7.83,7.83,0,0,1-6.73-3.87c-1.66-2.75-2.5-7.12-2.5-13s.83-10.24,2.47-12.95,3.94-3.84,7.28-3.84h.49a7.93,7.93,0,0,1,6.8,3.88c1.68,2.75,2.52,7.09,2.52,12.92s-.85,10.19-2.53,12.94A7.87,7.87,0,0,1,187,37.53h-.53l-.46,0Z"/><path class="cls-3" d="M208.34,54.12c-.4,0-.84,0-1.33,0l-1.39,0H202l-13.72,0a.53.53,0,0,1-.39-.18.49.49,0,0,1-.09-.42A14.17,14.17,0,0,1,190.23,48a15.35,15.35,0,0,1,4.48-4c.47-.28,1.14-.66,2-1.15a17.74,17.74,0,0,0,3.58-2.42,6,6,0,0,0,1.37-2.13,8,8,0,0,0,.44-2.81A7.85,7.85,0,0,0,201,30.81,3.74,3.74,0,0,0,198,29.37h-.4a4.73,4.73,0,0,0-3.69,1.76,12.38,12.38,0,0,0-2.23,5.69.49.49,0,0,1-.41.43l-.48.08h-.09a.5.5,0,0,1-.48-.37l-1.9-7.07a.51.51,0,0,1,.27-.58,24.32,24.32,0,0,1,4.85-1.72,21.64,21.64,0,0,1,4.93-.58h.66a14.69,14.69,0,0,1,8,2.34,7.33,7.33,0,0,1,3.41,6.24,6.56,6.56,0,0,1-1.08,3.76A9.94,9.94,0,0,1,206,42.27a20.63,20.63,0,0,1-4.18,1.61c-1.88.58-3.3,1-4.19,1.4a8.93,8.93,0,0,0-2.71,1.44,2.78,2.78,0,0,0-.76,1h9.14a9.76,9.76,0,0,0,3.77-.76A7.77,7.77,0,0,0,210,44.55a.51.51,0,0,1,.4-.2h.09l.44.08a.49.49,0,0,1,.39.63l-2.48,8.69A.5.5,0,0,1,208.34,54.12Z"/><path class="cls-2" d="M199.05,27.52a14.15,14.15,0,0,1,7.68,2.26,6.84,6.84,0,0,1,3.19,5.82,6,6,0,0,1-1,3.48,9.23,9.23,0,0,1-3.2,2.75,20.89,20.89,0,0,1-4.07,1.57c-2,.59-3.36,1.06-4.25,1.41a9.53,9.53,0,0,0-2.83,1.51,3.36,3.36,0,0,0-1.14,1.87h9.83a10.15,10.15,0,0,0,4-.8,8.27,8.27,0,0,0,3.16-2.55l.44.08-2.48,8.69c-.75,0-1.65-.07-2.71-.09H202l-13.72,0a14.26,14.26,0,0,1,2.35-5.24A15.14,15.14,0,0,1,195,44.42c.47-.28,1.14-.66,2-1.14a17.86,17.86,0,0,0,3.66-2.48,6.42,6.42,0,0,0,1.51-2.33,8.28,8.28,0,0,0,.48-3,8.34,8.34,0,0,0-1.23-4.92A4.19,4.19,0,0,0,198,28.87h-.4a5.26,5.26,0,0,0-4.08,1.94,13,13,0,0,0-2.34,6l-.48.08-1.9-7.07a24.43,24.43,0,0,1,4.75-1.69,21.16,21.16,0,0,1,4.82-.56h.66m0-1h-.7a21.89,21.89,0,0,0-5,.59,24.8,24.8,0,0,0-5,1.76,1,1,0,0,0-.53,1.16l1.9,7.07a1,1,0,0,0,1,.74h.17l.48-.08a1,1,0,0,0,.83-.86,11.83,11.83,0,0,1,2.14-5.47,4.21,4.21,0,0,1,3.28-1.55h.4a3.24,3.24,0,0,1,2.54,1.25,7.33,7.33,0,0,1,1.06,4.29.22.22,0,0,0,0,.08,7.43,7.43,0,0,1-.42,2.65,5.4,5.4,0,0,1-1.25,1.93,17.24,17.24,0,0,1-3.43,2.32c-.9.5-1.58.89-2.06,1.17a16,16,0,0,0-4.61,4.1,14.78,14.78,0,0,0-2.53,5.63,1,1,0,0,0,1,1.21l13.72,0h3.62l1.37,0c.5,0,.95,0,1.35,0a1,1,0,0,0,1-.72l2.48-8.69a1,1,0,0,0-.12-.81A1,1,0,0,0,211,44l-.44-.08-.18,0a1,1,0,0,0-.79.4,7.34,7.34,0,0,1-2.79,2.24,9,9,0,0,1-3.54.71H195.1l.1-.09a8.59,8.59,0,0,1,2.52-1.34l.05,0c.88-.34,2.29-.81,4.17-1.38a21.48,21.48,0,0,0,4.24-1.64,10.33,10.33,0,0,0,3.55-3l0,0a7.11,7.11,0,0,0,1.16-4.05,7.79,7.79,0,0,0-3.65-6.64,15.16,15.16,0,0,0-8.22-2.42Z"/><path class="cls-3" d="M13,40.08a.49.49,0,0,1-.34-.14.48.48,0,0,1-.16-.36v-.73a.5.5,0,0,1,.42-.49,3.82,3.82,0,0,0,2.91-2.3c.56-1.3.85-4.54.85-9.64v-16c0-3.74-.33-4.83-.53-5.14a1.89,1.89,0,0,0-1.54-.78h-.23A10,10,0,0,0,8.7,6.69,28.1,28.1,0,0,0,2.44,13a.49.49,0,0,1-.41.21.45.45,0,0,1-.16,0L1.22,13a.49.49,0,0,1-.32-.59L3.54,2A.51.51,0,0,1,4,1.6H40a.5.5,0,0,1,.49.38l2.54,10.41a.5.5,0,0,1-.31.59l-.62.23-.18,0a.48.48,0,0,1-.4-.21A28.68,28.68,0,0,0,35.33,6.7a10.13,10.13,0,0,0-5.65-2.19l-.26,0a2,2,0,0,0-1.58.81c-.18.3-.52,1.41-.52,5.12v16c0,4.94.29,8.14.86,9.5a4,4,0,0,0,3,2.44.49.49,0,0,1,.41.49v.73a.48.48,0,0,1-.15.36.5.5,0,0,1-.35.14h0C29.8,40,28.49,40,27.14,40H16.67c-1.15,0-2.29.06-3.38.12Z"/><path class="cls-2" d="M40,2.1l2.54,10.41-.62.23A28.6,28.6,0,0,0,35.62,6.3,10.63,10.63,0,0,0,29.71,4l-.29,0a2.48,2.48,0,0,0-2,1c-.4.67-.61,2.47-.61,5.41v16q0,7.56.89,9.69a4.52,4.52,0,0,0,3.38,2.74v.73c-1.27-.06-2.59-.1-3.94-.13H16.67c-1.27,0-2.51.07-3.7.13v-.73a4.37,4.37,0,0,0,3.29-2.6q.89-2,.89-9.83v-16Q17.15,6,16.54,5a2.44,2.44,0,0,0-2-1l-.29,0A10.59,10.59,0,0,0,8.38,6.3,29,29,0,0,0,2,12.74l-.65-.23L4,2.1H40m0-1H4a1,1,0,0,0-1,.76L.41,12.27a1,1,0,0,0,.64,1.18l.65.23a1,1,0,0,0,.33.06,1,1,0,0,0,.82-.42A27.36,27.36,0,0,1,9,7.11,9.53,9.53,0,0,1,14.36,5h.22a1.48,1.48,0,0,1,1.13.57c.09.18.44,1.08.44,4.86v16c0,6.26-.44,8.59-.8,9.44a3.4,3.4,0,0,1-2.54,2,1,1,0,0,0-.84,1v.73a1,1,0,0,0,.31.73,1,1,0,0,0,.69.27h0l.34,0c1.08-.05,2.19-.11,3.31-.11H27.13c1.5,0,2.78.08,3.92.13h0a1,1,0,0,0,.69-.27,1,1,0,0,0,.31-.73v-.73a1,1,0,0,0-.82-1,3.52,3.52,0,0,1-2.63-2.14c-.37-.89-.82-3.23-.82-9.31v-16c0-3.66.33-4.62.45-4.86A1.47,1.47,0,0,1,29.42,5h.23A9.61,9.61,0,0,1,35,7.08a28.12,28.12,0,0,1,6.13,6.24,1,1,0,0,0,.81.42,1,1,0,0,0,.35-.06l.62-.23a1,1,0,0,0,.63-1.18L41,1.86a1,1,0,0,0-1-.76Z"/><g class="cls-4"><g class="cls-4"><path class="cls-5" d="M23.23,53.19a.25.25,0,0,1-.25-.25V45.1a.25.25,0,0,1,.25-.25h2.89a6.15,6.15,0,0,1,1.56.16A2.92,2.92,0,0,1,29,45.8a3.85,3.85,0,0,1,.81,1.36,6.09,6.09,0,0,1,.27,1.94,5.38,5.38,0,0,1-.26,1.75,3.77,3.77,0,0,1-.9,1.48,3.07,3.07,0,0,1-1.21.68,5,5,0,0,1-1.48.18ZM26,51.37a3.87,3.87,0,0,0,.89-.07,1.15,1.15,0,0,0,.54-.27,1.4,1.4,0,0,0,.34-.64A4.81,4.81,0,0,0,27.91,49a4.42,4.42,0,0,0-.15-1.32,1.62,1.62,0,0,0-.38-.66,1.21,1.21,0,0,0-.62-.3,6.74,6.74,0,0,0-1.24-.07h-.46v4.69Z"/><path class="cls-2" d="M26.12,45.1a5.62,5.62,0,0,1,1.49.15,2.72,2.72,0,0,1,1.18.72,3.43,3.43,0,0,1,.75,1.27,5.87,5.87,0,0,1,.26,1.86,5.21,5.21,0,0,1-.24,1.67,3.5,3.5,0,0,1-.84,1.38,2.81,2.81,0,0,1-1.12.63,4.8,4.8,0,0,1-1.4.16h-3V45.1h2.89m-1.31,6.52H26a4.45,4.45,0,0,0,1-.07,1.62,1.62,0,0,0,.64-.33,1.78,1.78,0,0,0,.41-.76A5,5,0,0,0,28.16,49a4.63,4.63,0,0,0-.16-1.4,1.87,1.87,0,0,0-.45-.76,1.58,1.58,0,0,0-.73-.37,7.36,7.36,0,0,0-1.3-.07h-.71v5.19m1.31-7H23.23a.5.5,0,0,0-.5.5v7.84a.5.5,0,0,0,.5.5h3a5.11,5.11,0,0,0,1.55-.19,3.26,3.26,0,0,0,1.31-.74,4,4,0,0,0,1-1.58,5.6,5.6,0,0,0,.27-1.83,6.25,6.25,0,0,0-.29-2,3.91,3.91,0,0,0-.86-1.45,3.09,3.09,0,0,0-1.4-.86,6.23,6.23,0,0,0-1.63-.17Zm-.81,2.33h.21a7.15,7.15,0,0,1,1.19.06,1.07,1.07,0,0,1,.5.25,1.3,1.3,0,0,1,.31.55A4.21,4.21,0,0,1,27.66,49a4.75,4.75,0,0,1-.14,1.29,1.1,1.1,0,0,1-.27.53.91.91,0,0,1-.43.21,3.79,3.79,0,0,1-.83.06h-.68V46.93Z"/><path class="cls-5" d="M31.67,53.19a.25.25,0,0,1-.25-.25V47.26a.26.26,0,0,1,.25-.25h1.51a.25.25,0,0,1,.25.25v5.68a.25.25,0,0,1-.25.25Zm0-6.45a.25.25,0,0,1-.25-.25V45.1a.26.26,0,0,1,.25-.25h1.51a.25.25,0,0,1,.25.25v1.39a.25.25,0,0,1-.25.25Z"/><path class="cls-2" d="M33.18,45.1v1.39H31.67V45.1h1.51m0,2.16v5.68H31.67V47.26h1.51m0-2.66H31.67a.51.51,0,0,0-.5.5v1.39a.51.51,0,0,0,.19.39.5.5,0,0,0-.19.38v5.68a.5.5,0,0,0,.5.5h1.51a.5.5,0,0,0,.5-.5V47.26a.49.49,0,0,0-.18-.38.5.5,0,0,0,.18-.39V45.1a.51.51,0,0,0-.5-.5Z"/><path class="cls-5" d="M36.83,53.19a.26.26,0,0,1-.24-.15l-2.28-5.68a.23.23,0,0,1,0-.24.25.25,0,0,1,.21-.11h1.57a.26.26,0,0,1,.24.17l1.07,2.89.07.24c0-.08.06-.16.08-.23l1.09-2.9a.25.25,0,0,1,.23-.17h1.54a.25.25,0,0,1,.21.11.26.26,0,0,1,0,.24L38.41,53a.25.25,0,0,1-.23.16Z"/><path class="cls-2" d="M40.43,47.26l-2.25,5.68H36.83l-2.29-5.68h1.57l1.07,2.9.31,1c.09-.25.14-.41.16-.49s.1-.32.16-.48l1.08-2.9h1.54m0-.5H38.89a.5.5,0,0,0-.47.33l-.92,2.48-.92-2.48a.5.5,0,0,0-.47-.33H34.54a.54.54,0,0,0-.42.22.52.52,0,0,0,0,.47l2.29,5.68a.5.5,0,0,0,.47.31h1.35a.49.49,0,0,0,.46-.31l2.26-5.68a.5.5,0,0,0-.47-.69Z"/><path class="cls-5" d="M41.9,53.19a.25.25,0,0,1-.25-.25V47.26A.25.25,0,0,1,41.9,47h1.5a.25.25,0,0,1,.25.25v5.68a.25.25,0,0,1-.25.25Zm0-6.45a.25.25,0,0,1-.25-.25V45.1a.25.25,0,0,1,.25-.25h1.5a.25.25,0,0,1,.25.25v1.39a.25.25,0,0,1-.25.25Z"/><path class="cls-2" d="M43.4,45.1v1.39H41.9V45.1h1.5m0,2.16v5.68H41.9V47.26h1.5m0-2.66H41.9a.51.51,0,0,0-.5.5v1.39a.5.5,0,0,0,.18.39.49.49,0,0,0-.18.38v5.68a.5.5,0,0,0,.5.5h1.5a.5.5,0,0,0,.5-.5V47.26a.49.49,0,0,0-.18-.38.5.5,0,0,0,.18-.39V45.1a.5.5,0,0,0-.5-.5Z"/><path class="cls-5" d="M47.68,53.32a3.39,3.39,0,0,1-2-.52,2.36,2.36,0,0,1-1-1.42.28.28,0,0,1,0-.2.39.39,0,0,1,.17-.11l1.55-.23a.24.24,0,0,1,.24.2.93.93,0,0,0,.3.52,1.07,1.07,0,0,0,.67.17,1.25,1.25,0,0,0,.73-.16.22.22,0,0,0,.1-.2.14.14,0,0,0,0-.11h0a1.18,1.18,0,0,0-.38-.13,8.09,8.09,0,0,1-2.39-.77,1.69,1.69,0,0,1-.78-1.48,1.82,1.82,0,0,1,.67-1.43,2.93,2.93,0,0,1,2-.57,3.27,3.27,0,0,1,1.87.43,2.12,2.12,0,0,1,.88,1.26.27.27,0,0,1,0,.2.25.25,0,0,1-.17.11l-1.42.27h0a.25.25,0,0,1-.24-.18.63.63,0,0,0-.25-.37,1,1,0,0,0-.58-.14,1.36,1.36,0,0,0-.72.13.11.11,0,0,0,0,.1c.07.09.26.2,1.35.45a4.3,4.3,0,0,1,1.79.72,1.62,1.62,0,0,1,.56,1.31,2,2,0,0,1-.74,1.53A3.17,3.17,0,0,1,47.68,53.32Z"/><path class="cls-2" d="M47.56,47.13a3.15,3.15,0,0,1,1.73.38,1.94,1.94,0,0,1,.78,1.13l-1.41.26a.89.89,0,0,0-.35-.51,1.24,1.24,0,0,0-.72-.18,1.62,1.62,0,0,0-.85.17.34.34,0,0,0,0,.58,5.46,5.46,0,0,0,1.4.42,4.25,4.25,0,0,1,1.68.67,1.41,1.41,0,0,1,.47,1.12,1.71,1.71,0,0,1-.66,1.34,2.89,2.89,0,0,1-1.93.56,3.18,3.18,0,0,1-1.83-.47A2.17,2.17,0,0,1,45,51.32l1.51-.23a1.08,1.08,0,0,0,.39.67,1.33,1.33,0,0,0,.82.22,1.52,1.52,0,0,0,.88-.21.48.48,0,0,0,.2-.4.39.39,0,0,0-.11-.28,1,1,0,0,0-.5-.2,8.41,8.41,0,0,1-2.31-.73,1.49,1.49,0,0,1-.67-1.28,1.56,1.56,0,0,1,.58-1.24,2.7,2.7,0,0,1,1.81-.51m0-.5a3.17,3.17,0,0,0-2.13.63,2.07,2.07,0,0,0-.76,1.62,2,2,0,0,0,.89,1.69,1.3,1.3,0,0,0,.21.12l-.88.14a.51.51,0,0,0-.41.62A2.66,2.66,0,0,0,45.56,53a3.69,3.69,0,0,0,2.12.56,3.41,3.41,0,0,0,2.26-.68,2.2,2.2,0,0,0,.83-1.72,1.87,1.87,0,0,0-.65-1.5,3.14,3.14,0,0,0-.69-.41l.73-.13a.54.54,0,0,0,.34-.23.51.51,0,0,0,0-.4,2.39,2.39,0,0,0-1-1.4,3.6,3.6,0,0,0-2-.47Zm-.05,2.09h.08a.82.82,0,0,1,.44.09l.06.06-.58-.14Zm.17,2.76a.85.85,0,0,1-.51-.12.44.44,0,0,1-.17-.24c.29.08.63.17,1,.26l.14,0a1.28,1.28,0,0,1-.5.07Z"/><path class="cls-5" d="M52.13,53.19a.25.25,0,0,1-.25-.25V47.26a.25.25,0,0,1,.25-.25h1.5a.25.25,0,0,1,.25.25v5.68a.25.25,0,0,1-.25.25Zm0-6.45a.25.25,0,0,1-.25-.25V45.1a.25.25,0,0,1,.25-.25h1.5a.25.25,0,0,1,.25.25v1.39a.25.25,0,0,1-.25.25Z"/><path class="cls-2" d="M53.63,45.1v1.39h-1.5V45.1h1.5m0,2.16v5.68h-1.5V47.26h1.5m0-2.66h-1.5a.5.5,0,0,0-.5.5v1.39a.5.5,0,0,0,.18.39.49.49,0,0,0-.18.38v5.68a.5.5,0,0,0,.5.5h1.5a.5.5,0,0,0,.5-.5V47.26a.49.49,0,0,0-.18-.38.5.5,0,0,0,.18-.39V45.1a.5.5,0,0,0-.5-.5Z"/><path class="cls-5" d="M58.31,53.32a3.55,3.55,0,0,1-1.6-.38,2.68,2.68,0,0,1-1.19-1.14,3.77,3.77,0,0,1-.4-1.78,3.35,3.35,0,0,1,.4-1.56,2.79,2.79,0,0,1,1.15-1.18,3.39,3.39,0,0,1,1.63-.4,3.09,3.09,0,0,1,2.29.92,3.4,3.4,0,0,1,0,4.6A3.08,3.08,0,0,1,58.31,53.32Zm0-4.71a1,1,0,0,0-.8.36,1.64,1.64,0,0,0-.34,1.13,1.62,1.62,0,0,0,.34,1.13,1,1,0,0,0,1.6,0,1.69,1.69,0,0,0,.34-1.14A1.66,1.66,0,0,0,59.1,49,1,1,0,0,0,58.3,48.61Z"/><path class="cls-2" d="M58.3,47.13a2.84,2.84,0,0,1,2.11.84,2.89,2.89,0,0,1,.82,2.12,2.92,2.92,0,0,1-.83,2.13,2.78,2.78,0,0,1-2.09.85,3.36,3.36,0,0,1-1.49-.35,2.47,2.47,0,0,1-1.08-1A3.39,3.39,0,0,1,55.37,50a3,3,0,0,1,.37-1.45,2.58,2.58,0,0,1,1-1.07,3.15,3.15,0,0,1,1.51-.37m0,4.72a1.28,1.28,0,0,0,1-.45,2,2,0,0,0,.4-1.31,1.9,1.9,0,0,0-.4-1.28,1.31,1.31,0,0,0-2,0,2.3,2.3,0,0,0,0,2.59,1.28,1.28,0,0,0,1,.45m0-5.22a3.55,3.55,0,0,0-1.75.44,3,3,0,0,0-1.25,1.27A3.5,3.5,0,0,0,54.87,50a4,4,0,0,0,.43,1.9,3,3,0,0,0,1.29,1.24,3.82,3.82,0,0,0,1.72.41,3.33,3.33,0,0,0,2.45-1,3.43,3.43,0,0,0,1-2.48,3.35,3.35,0,0,0-3.43-3.46Zm0,4.72a.78.78,0,0,1-.62-.29,1.41,1.41,0,0,1-.27-1,1.43,1.43,0,0,1,.27-1,.8.8,0,0,1,.62-.28.77.77,0,0,1,.61.28,1.4,1.4,0,0,1,.28,1,1.44,1.44,0,0,1-.28,1,.75.75,0,0,1-.61.29Z"/><path class="cls-5" d="M66.62,53.19a.25.25,0,0,1-.25-.25V50a4.06,4.06,0,0,0-.08-1.1.62.62,0,0,0-.22-.3.68.68,0,0,0-.38-.11,1,1,0,0,0-.56.17.89.89,0,0,0-.33.44,4.51,4.51,0,0,0-.1,1.23v2.57a.25.25,0,0,1-.25.25H62.94a.25.25,0,0,1-.25-.25V47.26a.26.26,0,0,1,.25-.25h1.4a.25.25,0,0,1,.25.25v.21a2.43,2.43,0,0,1,1.62-.59,2.37,2.37,0,0,1,1,.21,1.68,1.68,0,0,1,.72.53,1.91,1.91,0,0,1,.34.72,4.94,4.94,0,0,1,.09,1.07v3.53a.25.25,0,0,1-.25.25Z"/><path class="cls-2" d="M66.21,47.13a2.24,2.24,0,0,1,.91.18,1.6,1.6,0,0,1,.62.46,1.83,1.83,0,0,1,.3.63,5.12,5.12,0,0,1,.08,1v3.53h-1.5V50a4.2,4.2,0,0,0-.1-1.19.83.83,0,0,0-.31-.42.91.91,0,0,0-.52-.15,1.21,1.21,0,0,0-.7.22,1.07,1.07,0,0,0-.43.57,5.23,5.23,0,0,0-.11,1.3v2.57H62.94V47.26h1.4v.84a2.29,2.29,0,0,1,1.87-1m0-.5a2.68,2.68,0,0,0-1.43.4.49.49,0,0,0-.44-.27h-1.4a.51.51,0,0,0-.5.5v5.68a.5.5,0,0,0,.5.5h1.51a.5.5,0,0,0,.5-.5V50.37A4,4,0,0,1,65,49.22a.55.55,0,0,1,.23-.31.75.75,0,0,1,.42-.13.33.33,0,0,1,.23.07.31.31,0,0,1,.13.17,3.91,3.91,0,0,1,.07,1v2.9a.5.5,0,0,0,.5.5h1.5a.5.5,0,0,0,.5-.5V49.41a4.7,4.7,0,0,0-.1-1.12,2.13,2.13,0,0,0-.38-.82,2,2,0,0,0-.82-.61,2.72,2.72,0,0,0-1.11-.23Z"/><path class="cls-5" d="M76.37,53.32a3.55,3.55,0,0,1-1.6-.38,2.68,2.68,0,0,1-1.19-1.14,3.77,3.77,0,0,1-.4-1.78,3.35,3.35,0,0,1,.4-1.56,2.84,2.84,0,0,1,1.15-1.18,3.39,3.39,0,0,1,1.63-.4,3.09,3.09,0,0,1,2.29.92,3.4,3.4,0,0,1,0,4.6A3.06,3.06,0,0,1,76.37,53.32Zm0-4.71a1,1,0,0,0-.8.36,1.69,1.69,0,0,0-.34,1.13,1.68,1.68,0,0,0,.34,1.13,1,1,0,0,0,1.6,0,1.64,1.64,0,0,0,.34-1.14A1.61,1.61,0,0,0,77.16,49,1,1,0,0,0,76.36,48.61Z"/><path class="cls-2" d="M76.36,47.13a2.82,2.82,0,0,1,2.11.84,3.15,3.15,0,0,1,0,4.25,2.78,2.78,0,0,1-2.09.85,3.36,3.36,0,0,1-1.49-.35,2.47,2.47,0,0,1-1.08-1A3.51,3.51,0,0,1,73.43,50a3.16,3.16,0,0,1,.37-1.45,2.64,2.64,0,0,1,1-1.07,3.15,3.15,0,0,1,1.51-.37m0,4.72a1.27,1.27,0,0,0,1-.45,1.9,1.9,0,0,0,.4-1.31,1.85,1.85,0,0,0-.4-1.28,1.27,1.27,0,0,0-1-.45,1.28,1.28,0,0,0-1,.45,2.3,2.3,0,0,0,0,2.59,1.28,1.28,0,0,0,1,.45m0-5.22a3.55,3.55,0,0,0-1.75.44,3,3,0,0,0-1.25,1.27A3.62,3.62,0,0,0,72.93,50a4,4,0,0,0,.43,1.9,2.94,2.94,0,0,0,1.3,1.24,3.78,3.78,0,0,0,1.71.41,3.31,3.31,0,0,0,2.45-1,3.46,3.46,0,0,0-2.46-5.94Zm0,4.72a.76.76,0,0,1-.61-.29,1.41,1.41,0,0,1-.28-1,1.43,1.43,0,0,1,.28-1,.77.77,0,0,1,.61-.28.79.79,0,0,1,.62.28,1.4,1.4,0,0,1,.27,1,1.44,1.44,0,0,1-.27,1,.77.77,0,0,1-.62.29Z"/><path class="cls-5" d="M81.19,53.19a.25.25,0,0,1-.25-.25V48.7h-.58a.25.25,0,0,1-.25-.25V47.26a.25.25,0,0,1,.25-.25h.58v-.17a3,3,0,0,1,.18-1.17,1.46,1.46,0,0,1,.67-.7,2.38,2.38,0,0,1,1.15-.25,4.56,4.56,0,0,1,1.33.2.25.25,0,0,1,.17.29l-.2,1a.25.25,0,0,1-.11.16.22.22,0,0,1-.13,0h-.06a2.94,2.94,0,0,0-.63-.08.4.4,0,0,0-.29.08s-.07.09-.07.41V47h.87a.25.25,0,0,1,.25.25v1.19a.25.25,0,0,1-.25.25H83v4.24a.25.25,0,0,1-.25.25Z"/><path class="cls-2" d="M82.94,45a4.14,4.14,0,0,1,1.26.19L84,46.21a2.84,2.84,0,0,0-.69-.09.58.58,0,0,0-.47.16.83.83,0,0,0-.14.58v.4h1.12v1.19H82.7v4.49H81.19V48.45h-.83V47.26h.83v-.42a2.64,2.64,0,0,1,.16-1.07,1.16,1.16,0,0,1,.56-.58,2.12,2.12,0,0,1,1-.22m0-.5a2.62,2.62,0,0,0-1.27.28,1.67,1.67,0,0,0-.78.82,3.12,3.12,0,0,0-.2,1.19h-.33a.5.5,0,0,0-.5.5v1.19a.5.5,0,0,0,.5.5h.33v4a.5.5,0,0,0,.5.5H82.7a.5.5,0,0,0,.5-.5V49h.62a.51.51,0,0,0,.5-.5V47.26a.51.51,0,0,0-.5-.5H83.2c0-.06,0-.1,0-.13h.1a2.44,2.44,0,0,1,.57.08H84a.56.56,0,0,0,.27-.08.52.52,0,0,0,.22-.32l.2-1.05a.49.49,0,0,0-.34-.57,4.52,4.52,0,0,0-1.41-.22Z"/><path class="cls-5" d="M88.82,53.19a.25.25,0,0,1-.25-.25V45.1a.25.25,0,0,1,.25-.25H94.2a.26.26,0,0,1,.25.25v1.33a.25.25,0,0,1-.25.25H90.65V48h3a.25.25,0,0,1,.25.25v1.33a.25.25,0,0,1-.25.25h-3v3.08a.25.25,0,0,1-.25.25Z"/><path class="cls-2" d="M94.2,45.1v1.33H90.4v1.85h3.28v1.33H90.4v3.33H88.82V45.1H94.2m0-.5H88.82a.51.51,0,0,0-.5.5v7.84a.5.5,0,0,0,.5.5H90.4a.5.5,0,0,0,.5-.5V50.11h2.78a.5.5,0,0,0,.5-.5V48.28a.51.51,0,0,0-.5-.5H90.9v-.85h3.3a.51.51,0,0,0,.5-.5V45.1a.51.51,0,0,0-.5-.5Z"/><path class="cls-5" d="M96,53.19a.25.25,0,0,1-.25-.25V47.26A.25.25,0,0,1,96,47h1.4a.25.25,0,0,1,.25.25v.06a1.2,1.2,0,0,1,.26-.21,1.4,1.4,0,0,1,.78-.23,2.19,2.19,0,0,1,1.12.32.26.26,0,0,1,.11.3l-.47,1.31a.23.23,0,0,1-.15.15l-.08,0a.33.33,0,0,1-.14,0,1.06,1.06,0,0,0-.57-.21.6.6,0,0,0-.38.12,1,1,0,0,0-.26.5,8.83,8.83,0,0,0-.11,1.84v1.75a.25.25,0,0,1-.25.25Z"/><path class="cls-2" d="M98.66,47.13a1.92,1.92,0,0,1,1,.29l-.46,1.31a1.3,1.3,0,0,0-.71-.25.79.79,0,0,0-.53.18,1.1,1.1,0,0,0-.35.62,9.44,9.44,0,0,0-.12,1.91v1.75H96V47.26h1.4v.81a2.43,2.43,0,0,1,.64-.75,1.21,1.21,0,0,1,.65-.19m0-.5a1.73,1.73,0,0,0-.92.26l0,0a.49.49,0,0,0-.35-.15H96a.51.51,0,0,0-.5.5v5.68a.5.5,0,0,0,.5.5h1.51a.5.5,0,0,0,.5-.5V51.19a8.44,8.44,0,0,1,.1-1.77.72.72,0,0,1,.18-.37.29.29,0,0,1,.22-.07.82.82,0,0,1,.43.17.57.57,0,0,0,.28.08l.16,0a.51.51,0,0,0,.31-.3l.46-1.31a.5.5,0,0,0-.21-.6,2.4,2.4,0,0,0-1.25-.36Z"/><path class="cls-5" d="M103.16,53.32a2.77,2.77,0,0,1-2.39-1.07,3.48,3.48,0,0,1-.61-2.1,3.42,3.42,0,0,1,.8-2.39,2.7,2.7,0,0,1,2.05-.88,2.79,2.79,0,0,1,2.19.93,3.94,3.94,0,0,1,.76,2.73.25.25,0,0,1-.25.25h-3.49a1.15,1.15,0,0,0,.27.61.9.9,0,0,0,.69.3.65.65,0,0,0,.43-.14.92.92,0,0,0,.28-.5.26.26,0,0,1,.24-.18l1.54.26a.26.26,0,0,1,.18.12.3.3,0,0,1,0,.21,2.72,2.72,0,0,1-1,1.38A3,3,0,0,1,103.16,53.32Zm.79-4a1,1,0,0,0-.25-.57.78.78,0,0,0-.6-.27.77.77,0,0,0-.62.28,1,1,0,0,0-.24.56Z"/><path class="cls-2" d="M103,47.13a2.51,2.51,0,0,1,2,.84,3.71,3.71,0,0,1,.7,2.57H102a1.54,1.54,0,0,0,.36,1,1.16,1.16,0,0,0,.87.37.92.92,0,0,0,.59-.2,1.12,1.12,0,0,0,.36-.62l1.5.26a2.51,2.51,0,0,1-.91,1.25,2.68,2.68,0,0,1-1.56.43,2.52,2.52,0,0,1-2.19-1,3.19,3.19,0,0,1-.56-2,3.12,3.12,0,0,1,.74-2.22,2.43,2.43,0,0,1,1.86-.8m-1,2.49h2.25a1.43,1.43,0,0,0-.34-1,1,1,0,0,0-.78-.34,1,1,0,0,0-.81.36,1.44,1.44,0,0,0-.32,1m1-3a2.92,2.92,0,0,0-2.23,1,3.6,3.6,0,0,0-.87,2.55,3.81,3.81,0,0,0,.65,2.25,3,3,0,0,0,2.6,1.17,3.17,3.17,0,0,0,1.84-.52,2.88,2.88,0,0,0,1.1-1.5.48.48,0,0,0,0-.42.47.47,0,0,0-.13-.15.48.48,0,0,0,.28-.44,4.2,4.2,0,0,0-.82-2.9,3,3,0,0,0-2.38-1Zm-.44,2.49a.34.34,0,0,1,.09-.14.57.57,0,0,1,.86,0,.56.56,0,0,1,.1.15Zm0,1.92h1.09a.65.65,0,0,1-.18.32.39.39,0,0,1-.28.09.62.62,0,0,1-.5-.22.5.5,0,0,1-.13-.19Z"/><path class="cls-5" d="M109.67,53.32a3.33,3.33,0,0,1-2-.52,2.42,2.42,0,0,1-1-1.42.25.25,0,0,1,0-.2.3.3,0,0,1,.17-.11l1.54-.23a.26.26,0,0,1,.25.2.87.87,0,0,0,.3.52,1,1,0,0,0,.66.17,1.31,1.31,0,0,0,.74-.16.24.24,0,0,0,.09-.2.14.14,0,0,0,0-.11h0a1.18,1.18,0,0,0-.38-.13,7.88,7.88,0,0,1-2.38-.77,1.7,1.7,0,0,1-.79-1.48,1.82,1.82,0,0,1,.67-1.43,3,3,0,0,1,2-.57,3.27,3.27,0,0,1,1.87.43,2.18,2.18,0,0,1,.89,1.26.24.24,0,0,1,0,.2.25.25,0,0,1-.17.11l-1.42.27h0a.25.25,0,0,1-.24-.18.63.63,0,0,0-.25-.37,1,1,0,0,0-.58-.14,1.29,1.29,0,0,0-.71.13c-.06,0-.06.07-.06.1s.26.2,1.36.45a4.38,4.38,0,0,1,1.78.72,1.62,1.62,0,0,1,.56,1.31,2,2,0,0,1-.74,1.53A3.15,3.15,0,0,1,109.67,53.32Z"/><path class="cls-2" d="M109.55,47.13a3.21,3.21,0,0,1,1.74.38,2,2,0,0,1,.78,1.13l-1.42.26a.89.89,0,0,0-.35-.51,1.24,1.24,0,0,0-.72-.18,1.62,1.62,0,0,0-.85.17.34.34,0,0,0,0,.58,5.46,5.46,0,0,0,1.4.42,4.25,4.25,0,0,1,1.68.67,1.41,1.41,0,0,1,.47,1.12,1.73,1.73,0,0,1-.65,1.34,2.92,2.92,0,0,1-1.93.56,3.19,3.19,0,0,1-1.84-.47,2.17,2.17,0,0,1-.89-1.28l1.51-.23a1.18,1.18,0,0,0,.39.67,1.34,1.34,0,0,0,.83.22,1.49,1.49,0,0,0,.87-.21.48.48,0,0,0,.2-.4.36.36,0,0,0-.11-.28,1,1,0,0,0-.5-.2,8.18,8.18,0,0,1-2.3-.73,1.48,1.48,0,0,1-.68-1.28,1.57,1.57,0,0,1,.59-1.24,2.67,2.67,0,0,1,1.8-.51m0-.5a3.17,3.17,0,0,0-2.13.63,2.07,2.07,0,0,0-.76,1.62,2,2,0,0,0,.89,1.69,1.3,1.3,0,0,0,.21.12l-.88.14a.49.49,0,0,0-.34.22.47.47,0,0,0-.07.4A2.66,2.66,0,0,0,107.55,53a3.7,3.7,0,0,0,2.13.56,3.36,3.36,0,0,0,2.25-.68,2.2,2.2,0,0,0,.83-1.72,1.87,1.87,0,0,0-.65-1.5,2.92,2.92,0,0,0-.69-.41l.74-.13a.49.49,0,0,0,.33-.23.51.51,0,0,0,.06-.4,2.45,2.45,0,0,0-1-1.4,3.57,3.57,0,0,0-2-.47Zm0,2.09h.08a.82.82,0,0,1,.44.09.34.34,0,0,1,.06.06l-.58-.14Zm.18,2.76a.87.87,0,0,1-.52-.12.5.5,0,0,1-.17-.24c.29.08.63.17,1,.26l.14,0a1.26,1.26,0,0,1-.49.07Z"/><path class="cls-5" d="M117.78,53.19a.25.25,0,0,1-.25-.25V50a4.06,4.06,0,0,0-.08-1.1.57.57,0,0,0-.22-.3.63.63,0,0,0-.38-.11,1,1,0,0,0-.56.17.82.82,0,0,0-.32.44,4.31,4.31,0,0,0-.11,1.23v2.57a.25.25,0,0,1-.25.25h-1.5a.25.25,0,0,1-.25-.25V47.26a.25.25,0,0,1,.25-.25h1.4a.26.26,0,0,1,.25.25v.21a2.52,2.52,0,0,1,2.63-.38,1.74,1.74,0,0,1,.72.53,2.08,2.08,0,0,1,.34.72,4.94,4.94,0,0,1,.09,1.07v3.53a.25.25,0,0,1-.25.25Z"/><path class="cls-2" d="M117.38,47.13a2.27,2.27,0,0,1,.91.18,1.6,1.6,0,0,1,.62.46,1.65,1.65,0,0,1,.29.63,4.35,4.35,0,0,1,.09,1v3.53h-1.51V50a4.8,4.8,0,0,0-.09-1.19.85.85,0,0,0-.32-.42.86.86,0,0,0-.52-.15,1.24,1.24,0,0,0-.7.22,1,1,0,0,0-.42.57,4.66,4.66,0,0,0-.12,1.3v2.57h-1.5V47.26h1.4v.84a2.28,2.28,0,0,1,1.87-1m0-.5A2.68,2.68,0,0,0,116,47a.51.51,0,0,0-.44-.27h-1.4a.5.5,0,0,0-.5.5v5.68a.5.5,0,0,0,.5.5h1.5a.5.5,0,0,0,.5-.5V50.37a4.48,4.48,0,0,1,.09-1.15.61.61,0,0,1,.24-.31.74.74,0,0,1,.41-.13.36.36,0,0,1,.24.07.31.31,0,0,1,.13.17,4.42,4.42,0,0,1,.06,1v2.9a.5.5,0,0,0,.5.5h1.51a.5.5,0,0,0,.5-.5V49.41a5.29,5.29,0,0,0-.1-1.12,2.13,2.13,0,0,0-.38-.82,2.08,2.08,0,0,0-.82-.61,2.72,2.72,0,0,0-1.11-.23Z"/><path class="cls-5" d="M123.94,53.32a3.62,3.62,0,0,1-1.6-.38,2.71,2.71,0,0,1-1.18-1.14,3.66,3.66,0,0,1-.4-1.78,3.26,3.26,0,0,1,.4-1.56,2.76,2.76,0,0,1,1.14-1.18,3.45,3.45,0,0,1,1.63-.4,3.06,3.06,0,0,1,2.29.92,3.11,3.11,0,0,1,.9,2.29,3.18,3.18,0,0,1-.9,2.31A3.08,3.08,0,0,1,123.94,53.32Zm0-4.71a1,1,0,0,0-.8.36,2,2,0,0,0,0,2.26,1,1,0,0,0,1.6,0,1.69,1.69,0,0,0,.33-1.14,1.66,1.66,0,0,0-.33-1.12A1,1,0,0,0,123.94,48.61Z"/><path class="cls-2" d="M123.93,47.13a2.85,2.85,0,0,1,2.12.84,3.15,3.15,0,0,1,0,4.25,2.8,2.8,0,0,1-2.1.85,3.32,3.32,0,0,1-1.48-.35,2.37,2.37,0,0,1-1.08-1A3.39,3.39,0,0,1,121,50a3,3,0,0,1,.37-1.45,2.55,2.55,0,0,1,1-1.07,3.21,3.21,0,0,1,1.51-.37m0,4.72a1.28,1.28,0,0,0,1-.45,2,2,0,0,0,.39-1.31,1.9,1.9,0,0,0-.39-1.28,1.31,1.31,0,0,0-2,0,2.3,2.3,0,0,0,0,2.59,1.28,1.28,0,0,0,1,.45m0-5.22a3.61,3.61,0,0,0-1.75.44,3,3,0,0,0-1.24,1.27,3.5,3.5,0,0,0-.43,1.68,3.92,3.92,0,0,0,.43,1.9,2.87,2.87,0,0,0,1.29,1.24,3.81,3.81,0,0,0,1.71.41,3.29,3.29,0,0,0,2.45-1,3.63,3.63,0,0,0,0-5,3.34,3.34,0,0,0-2.47-1Zm0,4.72a.78.78,0,0,1-.62-.29,1.41,1.41,0,0,1-.27-1,1.43,1.43,0,0,1,.27-1,.8.8,0,0,1,.62-.28.77.77,0,0,1,.61.28,1.4,1.4,0,0,1,.27,1,1.44,1.44,0,0,1-.27,1,.75.75,0,0,1-.61.29Z"/><path class="cls-5" d="M135.68,53.33a4,4,0,0,1-3-1.15,4.29,4.29,0,0,1-1.1-3.11A5.27,5.27,0,0,1,132,47a4.1,4.1,0,0,1,.78-1.15,3.2,3.2,0,0,1,1.1-.76,4.52,4.52,0,0,1,1.78-.33,4,4,0,0,1,3,1.15,5,5,0,0,1,0,6.31A3.91,3.91,0,0,1,135.68,53.33Zm0-6.76a1.74,1.74,0,0,0-1.39.59,3.43,3.43,0,0,0,0,3.71,1.89,1.89,0,0,0,2.75,0,2.79,2.79,0,0,0,.54-1.88,2.72,2.72,0,0,0-.53-1.85A1.73,1.73,0,0,0,135.68,46.57Z"/><path class="cls-2" d="M135.66,45A3.72,3.72,0,0,1,138.44,46a4.15,4.15,0,0,1,1,3,4.09,4.09,0,0,1-1,3,3.62,3.62,0,0,1-2.76,1.08A3.71,3.71,0,0,1,132.9,52a4.08,4.08,0,0,1-1-2.94,5,5,0,0,1,.36-2A3.57,3.57,0,0,1,133,46a3.06,3.06,0,0,1,1-.71,4.28,4.28,0,0,1,1.69-.31m0,6.75a2,2,0,0,0,1.55-.68,3.72,3.72,0,0,0,0-4,2,2,0,0,0-1.57-.67,2,2,0,0,0-1.58.67,3.67,3.67,0,0,0,0,4,2,2,0,0,0,1.56.68m0-7.25a4.85,4.85,0,0,0-1.88.35,3.55,3.55,0,0,0-1.18.82,4.32,4.32,0,0,0-.83,1.22,5.59,5.59,0,0,0-.4,2.21,4.59,4.59,0,0,0,1.17,3.29,4.61,4.61,0,0,0,6.26,0,5.27,5.27,0,0,0,0-6.65,4.18,4.18,0,0,0-3.14-1.23Zm0,6.75a1.5,1.5,0,0,1-1.19-.52,3.17,3.17,0,0,1,0-3.37,1.68,1.68,0,0,1,2.4,0,3.29,3.29,0,0,1,0,3.39,1.51,1.51,0,0,1-1.18.51Z"/><path class="cls-5" d="M144.61,53.19a.24.24,0,0,1-.21-.11l-1-1.44-1,1.44a.23.23,0,0,1-.2.11h-1.76a.24.24,0,0,1-.21-.39l2-2.78-1.86-2.61a.25.25,0,0,1,0-.26.26.26,0,0,1,.22-.14h1.84a.27.27,0,0,1,.21.12l.8,1.24.84-1.25a.26.26,0,0,1,.21-.11h1.76a.27.27,0,0,1,.23.14.27.27,0,0,1,0,.26L144.66,50l2,2.85a.22.22,0,0,1,0,.26.25.25,0,0,1-.22.13Z"/><path class="cls-2" d="M146.27,47.26,144.35,50l2.1,3h-1.84l-1.16-1.76-1.16,1.76h-1.76l2-2.92-2-2.76h1.84l1,1.56,1.06-1.56h1.76m0-.5h-1.76a.5.5,0,0,0-.41.22l-.64.94-.59-.93a.52.52,0,0,0-.42-.23h-1.84a.49.49,0,0,0-.44.27.51.51,0,0,0,0,.52L142,50l-1.84,2.63a.51.51,0,0,0,0,.52.5.5,0,0,0,.45.27h1.76a.49.49,0,0,0,.41-.22l.75-1.13.74,1.13a.5.5,0,0,0,.42.22h1.84a.48.48,0,0,0,.44-.27.49.49,0,0,0,0-.52L145,50l1.72-2.4a.49.49,0,0,0,0-.51.51.51,0,0,0-.45-.28Z"/><path class="cls-5" d="M148.52,55.5a4.51,4.51,0,0,1-.9-.1.24.24,0,0,1-.2-.22L147.29,54a.27.27,0,0,1,.08-.22.24.24,0,0,1,.17-.06h.05a2.54,2.54,0,0,0,.58.07.7.7,0,0,0,.59-.22,1.94,1.94,0,0,0,.31-.61l-2.13-5.62a.24.24,0,0,1,0-.23.23.23,0,0,1,.2-.11h1.6a.25.25,0,0,1,.24.17l1.12,3.32,1.09-3.31a.25.25,0,0,1,.24-.18H153a.26.26,0,0,1,.21.11.27.27,0,0,1,0,.23l-2,5.46-.36,1a4.48,4.48,0,0,1-.4.82,2,2,0,0,1-.48.49,2.17,2.17,0,0,1-.65.29A3.43,3.43,0,0,1,148.52,55.5Z"/><path class="cls-2" d="M153,47.26l-2,5.47-.36,1a4.09,4.09,0,0,1-.38.76,1.64,1.64,0,0,1-.41.42,2,2,0,0,1-.57.26,3,3,0,0,1-.77.09,4,4,0,0,1-.85-.09L147.54,54a3,3,0,0,0,.63.07.94.94,0,0,0,.78-.31,2,2,0,0,0,.38-.78l-2.16-5.7h1.6l1.36,4,1.33-4H153m0-.5h-1.55a.5.5,0,0,0-.48.35l-.85,2.6-.88-2.61a.51.51,0,0,0-.48-.34h-1.6a.5.5,0,0,0-.46.68l2.1,5.53a1.67,1.67,0,0,1-.25.46s-.1.12-.39.12a2.86,2.86,0,0,1-.54-.06h-.09a.47.47,0,0,0-.34.13A.5.5,0,0,0,147,54l.13,1.17a.51.51,0,0,0,.39.43,4.49,4.49,0,0,0,1,.11,3.58,3.58,0,0,0,.9-.11,2.57,2.57,0,0,0,.73-.33,2.14,2.14,0,0,0,.53-.55,3.8,3.8,0,0,0,.43-.86l.37-1,2-5.46a.47.47,0,0,0-.06-.46.48.48,0,0,0-.41-.22Z"/><path class="cls-5" d="M157,55.5a3.43,3.43,0,0,1-2.21-.56,1.78,1.78,0,0,1-.69-1.44v-.2a.31.31,0,0,1,.09-.18.33.33,0,0,1,.16,0l1.75.21a.25.25,0,0,1,.22.21c0,.17.07.23.09.24a.85.85,0,0,0,.53.12,1.58,1.58,0,0,0,.76-.14.54.54,0,0,0,.19-.26,2,2,0,0,0,.05-.6v-.19a2.18,2.18,0,0,1-1.45.53,2.36,2.36,0,0,1-2-1.07,3.61,3.61,0,0,1-.56-2,3.38,3.38,0,0,1,.75-2.35,2.47,2.47,0,0,1,1.89-.84,2.27,2.27,0,0,1,1.49.54v-.16a.25.25,0,0,1,.25-.25h1.4a.25.25,0,0,1,.25.25v5.1a5.31,5.31,0,0,1-.17,1.58,2.13,2.13,0,0,1-.54.88,2.08,2.08,0,0,1-.89.5A4.3,4.3,0,0,1,157,55.5Zm-.06-7a.86.86,0,0,0-.7.33A1.73,1.73,0,0,0,156,50a1.81,1.81,0,0,0,.29,1.17.83.83,0,0,0,.67.33,1,1,0,0,0,.74-.35A1.65,1.65,0,0,0,158,50a1.8,1.8,0,0,0-.3-1.15A1,1,0,0,0,157,48.53Z"/><path class="cls-2" d="M156.58,47.13a2.09,2.09,0,0,1,1.74.93v-.8h1.4v5.1a5.11,5.11,0,0,1-.16,1.5,1.87,1.87,0,0,1-.47.78,2.08,2.08,0,0,1-.79.45,4.52,4.52,0,0,1-1.27.16,3.27,3.27,0,0,1-2.05-.5,1.56,1.56,0,0,1-.6-1.25v-.18l1.72.2a.6.6,0,0,0,.2.42,1.18,1.18,0,0,0,.67.16,1.7,1.7,0,0,0,.88-.18.68.68,0,0,0,.3-.38,2.12,2.12,0,0,0,.07-.69V52a2,2,0,0,1-1.7.92,2.09,2.09,0,0,1-1.81-1,3.27,3.27,0,0,1-.52-1.9,3.16,3.16,0,0,1,.68-2.18,2.24,2.24,0,0,1,1.71-.76m.36,4.6a1.21,1.21,0,0,0,.93-.43,1.9,1.9,0,0,0,.38-1.28,2,2,0,0,0-.36-1.31,1.19,1.19,0,0,0-.92-.43,1.1,1.1,0,0,0-.89.42,1.94,1.94,0,0,0-.35,1.28,2,2,0,0,0,.35,1.33,1.07,1.07,0,0,0,.86.42m-.36-5.1a2.72,2.72,0,0,0-2.08.92,3.65,3.65,0,0,0-.81,2.52,3.79,3.79,0,0,0,.61,2.19,3,3,0,0,0,.55.61l-.41,0h-.06a.54.54,0,0,0-.32.11.54.54,0,0,0-.18.36v.21a2.05,2.05,0,0,0,.79,1.64,3.65,3.65,0,0,0,2.36.61,4.48,4.48,0,0,0,1.42-.19,2.52,2.52,0,0,0,1-.56,2.32,2.32,0,0,0,.59-1,5.46,5.46,0,0,0,.19-1.66v-5.1a.5.5,0,0,0-.5-.5h-1.4a.49.49,0,0,0-.42.23,2.47,2.47,0,0,0-1.32-.36Zm.36,4.6a.61.61,0,0,1-.48-.24,1.57,1.57,0,0,1-.23-1,1.59,1.59,0,0,1,.23-1,.64.64,0,0,1,.51-.24.63.63,0,0,1,.53.26,1.54,1.54,0,0,1,.25,1,1.48,1.48,0,0,1-.25.95.72.72,0,0,1-.56.26Zm-.35,2.21a2.34,2.34,0,0,0,1.12-.3.65.65,0,0,1,0,.23.23.23,0,0,1-.08.12,1.28,1.28,0,0,1-.63.11.72.72,0,0,1-.36-.06.66.66,0,0,1,0-.09Z"/><path class="cls-5" d="M164.07,53.32a2.79,2.79,0,0,1-2.39-1.07,3.55,3.55,0,0,1-.61-2.1,3.42,3.42,0,0,1,.8-2.39,2.7,2.7,0,0,1,2-.88,2.77,2.77,0,0,1,2.19.93,3.89,3.89,0,0,1,.76,2.73.25.25,0,0,1-.25.25h-3.49a1.08,1.08,0,0,0,.28.61.87.87,0,0,0,.68.3.7.7,0,0,0,.44-.14,1,1,0,0,0,.28-.5.26.26,0,0,1,.24-.18l1.54.26a.26.26,0,0,1,.17.12.26.26,0,0,1,0,.21,2.72,2.72,0,0,1-1,1.38A2.94,2.94,0,0,1,164.07,53.32Zm.79-4a1,1,0,0,0-.25-.57.81.81,0,0,0-1.22,0,1,1,0,0,0-.24.56Z"/><path class="cls-2" d="M163.92,47.13a2.51,2.51,0,0,1,2,.84,3.66,3.66,0,0,1,.7,2.57h-3.76a1.54,1.54,0,0,0,.36,1,1.18,1.18,0,0,0,.87.37.9.9,0,0,0,.59-.2,1.13,1.13,0,0,0,.37-.62l1.49.26a2.45,2.45,0,0,1-.91,1.25,2.64,2.64,0,0,1-1.56.43,2.54,2.54,0,0,1-2.19-1,3.26,3.26,0,0,1-.56-2,3.17,3.17,0,0,1,.74-2.22,2.43,2.43,0,0,1,1.86-.8m-1,2.49h2.24a1.48,1.48,0,0,0-.33-1,1.08,1.08,0,0,0-.79-.34,1.06,1.06,0,0,0-.81.36,1.39,1.39,0,0,0-.31,1m1-3a2.92,2.92,0,0,0-2.23,1,3.6,3.6,0,0,0-.87,2.55,3.74,3.74,0,0,0,.66,2.25,3,3,0,0,0,2.59,1.17,3.23,3.23,0,0,0,1.85-.52,3,3,0,0,0,1.1-1.5.52.52,0,0,0-.05-.42.37.37,0,0,0-.13-.15.46.46,0,0,0,.28-.44,4.15,4.15,0,0,0-.82-2.9,3,3,0,0,0-2.38-1Zm-.44,2.49a.5.5,0,0,1,.1-.14.51.51,0,0,1,.43-.2.54.54,0,0,1,.42.19.56.56,0,0,1,.1.15Zm0,1.92h1.09a.65.65,0,0,1-.18.32.38.38,0,0,1-.28.09.63.63,0,0,1-.5-.22.64.64,0,0,1-.13-.19Z"/><path class="cls-5" d="M172.06,53.19a.25.25,0,0,1-.25-.25V50a4.06,4.06,0,0,0-.08-1.1.62.62,0,0,0-.22-.3.68.68,0,0,0-.38-.11,1,1,0,0,0-.56.17.89.89,0,0,0-.33.44,4.51,4.51,0,0,0-.1,1.23v2.57a.25.25,0,0,1-.25.25h-1.5a.25.25,0,0,1-.25-.25V47.26a.25.25,0,0,1,.25-.25h1.39a.25.25,0,0,1,.25.25v.21a2.45,2.45,0,0,1,1.62-.59,2.37,2.37,0,0,1,1,.21,1.68,1.68,0,0,1,.72.53,1.91,1.91,0,0,1,.34.72,4.94,4.94,0,0,1,.09,1.07v3.53a.25.25,0,0,1-.25.25Z"/><path class="cls-2" d="M171.65,47.13a2.24,2.24,0,0,1,.91.18,1.53,1.53,0,0,1,.62.46,1.67,1.67,0,0,1,.3.63,5.12,5.12,0,0,1,.08,1v3.53h-1.5V50a4.2,4.2,0,0,0-.1-1.19.83.83,0,0,0-.31-.42.89.89,0,0,0-.52-.15,1.21,1.21,0,0,0-.7.22,1.07,1.07,0,0,0-.43.57,5.23,5.23,0,0,0-.11,1.3v2.57h-1.5V47.26h1.39v.84a2.29,2.29,0,0,1,1.87-1m0-.5a2.7,2.7,0,0,0-1.43.4.49.49,0,0,0-.44-.27h-1.39a.5.5,0,0,0-.5.5v5.68a.5.5,0,0,0,.5.5h1.5a.5.5,0,0,0,.5-.5V50.37a4,4,0,0,1,.09-1.15.59.59,0,0,1,.23-.31.75.75,0,0,1,.42-.13.32.32,0,0,1,.23.07.31.31,0,0,1,.13.17,3.91,3.91,0,0,1,.07,1v2.9a.5.5,0,0,0,.5.5h1.5a.5.5,0,0,0,.5-.5V49.41a5.4,5.4,0,0,0-.09-1.12,2.31,2.31,0,0,0-.39-.82,2,2,0,0,0-.82-.61,2.72,2.72,0,0,0-1.11-.23Z"/></g></g></svg>